<svg version="1.1" id="Layer_1" xmlns="http://www.w3.org/2000/svg" xmlns:xlink="http://www.w3.org/1999/xlink" x="0px" y="0px"
	 width="100%" viewBox="0 0 512 512" enable-background="new 0 0 512 512" xml:space="preserve">
<path fill="#000000" opacity="1.000000" stroke="none" 
	d="
M215.000000,513.000000 
	C143.699753,513.000000 72.399498,513.000000 1.049625,513.000000 
	C1.049625,342.445587 1.049625,171.891144 1.049625,1.000000 
	C72.021080,1.000000 143.042694,1.000000 214.550751,1.384784 
	C211.826782,2.851656 208.604446,3.899819 205.407730,5.021022 
	C168.655518,17.911341 143.765167,51.668327 143.974930,91.143242 
	C144.088074,112.434883 143.937057,133.727936 143.578888,154.901337 
	C140.541580,153.516464 137.830627,152.250610 134.932800,150.629608 
	C128.784378,149.516251 122.837242,148.283173 116.858139,148.101410 
	C105.380730,147.752457 93.881943,148.174622 82.397865,147.961792 
	C61.508671,147.574677 43.008205,165.521164 43.003872,187.488770 
	C42.992386,245.761353 42.983673,304.033966 43.042881,362.306488 
	C43.046349,365.717773 43.476059,369.158417 44.022144,372.534485 
	C46.950039,390.635773 61.856022,404.029297 79.683121,404.792145 
	C99.452042,405.638123 119.289566,404.881256 139.496979,404.890656 
	C141.246140,405.003296 142.595520,405.047607 143.963608,405.554474 
	C143.988724,409.012665 144.119293,412.014038 143.981049,415.002960 
	C143.195709,431.983002 145.503830,448.475555 153.426849,463.624481 
	C165.742218,487.171631 184.515915,503.177368 210.440506,510.325012 
	C212.081436,510.777435 213.485657,512.088440 215.000000,513.000000 
z"/>
<path fill="#544575" opacity="1.000000" stroke="none" 
	d="
M281.000000,1.000004 
	C320.354218,1.000000 359.708466,1.000000 399.472626,1.384995 
	C400.545380,2.173764 401.158997,2.760487 401.878387,2.954003 
	C413.610138,6.109906 424.647644,10.711132 434.390472,18.140945 
	C457.851288,36.032013 470.659607,59.952000 470.801178,89.187782 
	C471.306396,193.499954 471.027435,297.816101 470.955658,402.130676 
	C470.948364,412.745972 470.684326,423.385529 469.930420,433.970459 
	C468.630615,452.220520 460.994415,468.128601 449.438538,481.870026 
	C436.995850,496.665924 420.962006,506.340027 402.072754,511.063904 
	C401.270630,511.264526 400.686005,512.334900 400.000000,513.000000 
	C360.645782,513.000000 321.291534,513.000000 281.371613,512.673828 
	C279.503479,511.378784 278.282471,510.269104 276.886475,509.462128 
	C253.994720,496.229523 239.251740,476.880188 233.448486,451.071442 
	C250.274658,450.936127 266.635773,450.871613 283.461792,450.871704 
	C317.410217,450.946075 350.893860,450.999451 384.377319,450.950684 
	C407.740540,450.916687 423.841003,434.757568 423.849854,411.228882 
	C423.890594,303.281403 423.890228,195.333923 423.851471,87.386467 
	C423.842987,63.716194 408.151794,47.901653 384.506256,47.590820 
	C374.845947,47.463825 365.182343,47.526287 355.520721,47.580837 
	C348.555420,47.620163 347.049744,48.856689 345.045654,55.765938 
	C341.405090,68.317238 331.528809,76.882088 318.578369,78.205956 
	C313.131012,78.762817 307.604218,78.612854 302.112579,78.653404 
	C287.510101,78.761238 276.897247,72.433754 270.706238,58.652107 
	C267.082428,47.582031 267.082428,47.592003 255.742996,47.576435 
	C249.817673,47.568302 243.892395,47.517937 238.053085,47.167694 
	C246.932419,28.405500 259.670563,13.639891 277.933685,3.964786 
	C279.140625,3.325414 279.986298,2.004119 281.000000,1.000004 
z"/>
<path fill="#000000" opacity="1.000000" stroke="none" 
	d="
M400.468689,513.000000 
	C400.686005,512.334900 401.270630,511.264526 402.072754,511.063904 
	C420.962006,506.340027 436.995850,496.665924 449.438538,481.870026 
	C460.994415,468.128601 468.630615,452.220520 469.930420,433.970459 
	C470.684326,423.385529 470.948364,412.745972 470.955658,402.130676 
	C471.027435,297.816101 471.306396,193.499954 470.801178,89.187782 
	C470.659607,59.952000 457.851288,36.032013 434.390472,18.140945 
	C424.647644,10.711132 413.610138,6.109906 401.878387,2.954003 
	C401.158997,2.760487 400.545380,2.173764 399.941284,1.384995 
	C437.644318,1.000000 475.288666,1.000000 512.966492,1.000000 
	C512.966492,171.543106 512.966492,342.086212 512.966492,513.000000 
	C475.646576,513.000000 438.291962,513.000000 400.468689,513.000000 
z"/>
<path fill="#443866" opacity="1.000000" stroke="none" 
	d="
M280.531342,1.000004 
	C279.986298,2.004119 279.140625,3.325414 277.933685,3.964786 
	C259.670563,13.639891 246.932419,28.405500 237.588593,47.198017 
	C235.705933,47.555897 234.369156,47.641289 233.042267,47.561779 
	C206.470169,45.969543 190.275269,66.302513 190.801376,89.661446 
	C191.648605,127.277313 191.009109,164.926666 190.535019,202.637024 
	C184.918686,202.726761 179.765060,202.751892 174.611420,202.753799 
	C162.115372,202.758392 160.009995,200.744507 160.023560,188.383255 
	C160.036697,176.404617 155.708801,166.386780 146.909576,158.268631 
	C145.828979,157.271652 144.902908,156.107193 143.905228,155.020340 
	C143.937057,133.727936 144.088074,112.434883 143.974930,91.143242 
	C143.765167,51.668327 168.655518,17.911341 205.407730,5.021022 
	C208.604446,3.899819 211.826782,2.851656 215.018616,1.384784 
	C236.687561,1.000000 258.375122,1.000000 280.531342,1.000004 
z"/>
<path fill="#453966" opacity="1.000000" stroke="none" 
	d="
M232.983414,451.142242 
	C239.251740,476.880188 253.994720,496.229523 276.886475,509.462128 
	C278.282471,510.269104 279.503479,511.378784 280.902954,512.673828 
	C259.312439,513.000000 237.624878,513.000000 215.468658,513.000000 
	C213.485657,512.088440 212.081436,510.777435 210.440506,510.325012 
	C184.515915,503.177368 165.742218,487.171631 153.426849,463.624481 
	C145.503830,448.475555 143.195709,431.983002 143.981049,415.002960 
	C144.119293,412.014038 143.988724,409.012665 144.327988,405.342102 
	C160.109955,404.620667 175.546249,404.574188 190.992523,404.947144 
	C191.013977,407.861053 191.000702,410.355988 191.041077,412.850037 
	C191.244995,425.444794 196.225433,435.687866 206.220459,443.406616 
	C214.110809,449.500000 223.302475,451.191895 232.983414,451.142242 
z"/>
<path fill="#FCE299" opacity="1.000000" stroke="none" 
	d="
M190.982529,404.527710 
	C175.546249,404.574188 160.109955,404.620667 144.309296,404.879517 
	C142.595520,405.047607 141.246140,405.003296 139.400757,404.565796 
	C138.380539,403.547516 137.971039,402.742889 137.315201,402.323853 
	C123.906433,393.757263 118.015121,381.259674 118.015587,365.647247 
	C118.017387,305.816010 117.871643,245.983917 118.223389,186.154739 
	C118.262024,179.582672 120.134827,172.536026 123.005356,166.603958 
	C125.812889,160.802078 130.985306,156.144577 135.119659,150.984756 
	C137.830627,152.250610 140.541580,153.516464 143.578888,154.901337 
	C144.902908,156.107193 145.828979,157.271652 146.909576,158.268631 
	C155.708801,166.386780 160.036697,176.404617 160.023560,188.383255 
	C160.009995,200.744507 162.115372,202.758392 174.611420,202.753799 
	C179.765060,202.751892 184.918686,202.726761 190.991150,202.725464 
	C214.948715,202.686493 237.987457,202.634216 261.487122,202.656509 
	C287.755310,202.790924 313.563751,202.716858 339.369385,202.952942 
	C360.059204,203.142227 376.921539,219.905823 377.006989,240.556854 
	C377.180603,282.516235 377.178711,324.477295 377.008026,366.436676 
	C376.923859,387.125427 360.117096,403.894073 339.428619,404.078796 
	C315.619751,404.291412 291.807678,404.138092 267.997040,404.173126 
	C265.673218,404.176544 263.349731,404.386414 260.561493,404.404358 
	C250.978226,404.262451 241.859268,404.148529 232.740952,404.186798 
	C218.821259,404.245239 204.901978,404.408783 190.982529,404.527710 
M233.834885,286.807159 
	C226.496338,273.067505 215.254547,265.374084 199.493866,265.008240 
	C194.273849,264.887054 191.127197,267.768860 191.091843,272.837952 
	C190.949203,293.299957 190.946671,313.764160 191.096909,334.226074 
	C191.134491,339.344330 194.277679,342.030640 199.450287,342.046021 
	C201.928970,342.053375 204.464142,341.949188 206.879471,341.444458 
	C229.854996,336.643707 244.643936,311.511505 233.834885,286.807159 
M168.389862,335.917450 
	C170.655319,331.231018 174.587387,326.646667 174.881821,321.839508 
	C175.866776,305.758789 175.581055,289.598541 175.681488,273.468140 
	C175.690475,272.025635 175.173676,270.485840 174.556961,269.150116 
	C172.195007,264.034424 164.929886,263.218872 161.858063,267.937042 
	C160.601089,269.867676 160.104095,272.597870 160.076385,274.973846 
	C159.915237,288.789062 160.027069,302.607208 159.961517,316.423981 
	C159.952225,318.384827 160.188812,321.136414 159.071487,322.136536 
	C156.814423,324.156860 153.684982,326.443909 150.952805,326.397888 
	C146.964233,326.330688 144.828003,323.010040 144.841248,318.685608 
	C144.885620,304.202881 144.936539,289.718872 144.786560,275.237427 
	C144.714478,268.277832 141.779175,264.895966 136.532944,264.969208 
	C131.540375,265.038879 129.013809,268.418213 129.002274,275.197784 
	C128.977905,289.514252 128.973129,303.830811 129.020935,318.147156 
	C129.027557,320.126678 129.166962,322.153259 129.603836,324.076477 
	C133.517532,341.305847 153.975143,348.187683 168.389862,335.917450 
M281.278442,280.084747 
	C281.777679,280.082611 282.277771,280.098480 282.776062,280.075623 
	C288.575012,279.809509 291.976471,276.935486 291.893036,272.379425 
	C291.809814,267.833923 288.324432,264.993683 282.522980,264.938141 
	C275.534302,264.871246 268.542358,264.827118 261.555756,264.967896 
	C256.279633,265.074219 253.159851,267.787994 253.124405,272.817780 
	C252.980179,293.285431 252.988068,313.755157 253.128387,334.222870 
	C253.157471,338.464935 255.381851,341.817291 259.988800,341.970947 
	C268.299744,342.248169 276.630554,342.209686 284.944885,341.991455 
	C289.294495,341.877289 291.559723,338.862793 291.801605,334.799286 
	C292.038086,330.826904 289.728760,328.139923 285.882202,327.253876 
	C283.814728,326.777649 281.582611,326.987762 279.423645,326.941803 
	C267.502075,326.688080 269.082275,328.989685 268.842896,315.789276 
	C268.781464,312.401489 269.900818,310.881561 273.425690,311.071625 
	C276.909729,311.259460 280.415680,311.184631 283.906586,311.065430 
	C288.508881,310.908295 291.694275,307.942963 291.883606,303.834686 
	C292.079926,299.575531 288.816650,296.226715 283.958282,295.997192 
	C280.138641,295.816742 276.266083,296.233643 272.498810,295.749298 
	C271.176056,295.579254 269.198914,293.622192 269.045593,292.303772 
	C267.625977,280.096527 267.722931,280.085297 279.841339,280.086304 
	C280.007751,280.086304 280.174164,280.085999 281.278442,280.084747 
M320.116882,267.384857 
	C310.429108,273.207275 306.119568,281.624878 307.804596,291.433655 
	C309.765869,302.850433 317.414032,309.899597 329.125336,311.084473 
	C335.531189,311.732574 338.325409,314.353912 338.095520,319.499634 
	C337.876556,324.400055 334.636932,326.860748 328.228271,326.927734 
	C324.062347,326.971283 319.892975,326.855255 315.730133,326.978882 
	C310.830017,327.124390 307.404236,330.276428 307.359894,334.457672 
	C307.315582,338.639557 310.742035,341.933685 315.591217,342.057129 
	C320.920593,342.192810 326.257690,342.172363 331.588623,342.072083 
	C343.748383,341.843384 353.727203,331.810699 353.982422,319.658539 
	C354.240204,307.384491 345.128723,297.130737 332.803986,296.013824 
	C328.796143,295.650604 325.108612,294.994141 323.492676,290.679749 
	C321.539276,285.464508 325.113281,280.560242 331.425873,280.186218 
	C336.575470,279.881042 341.761749,280.227173 346.917511,279.983337 
	C351.282654,279.776855 353.566925,276.868225 353.831482,272.808502 
	C354.089783,268.844330 351.813080,265.482391 347.951630,265.329193 
	C338.888489,264.969604 329.641235,263.285065 320.116882,267.384857 
z"/>
<path fill="#FDCD64" opacity="1.000000" stroke="none" 
	d="
M134.932800,150.629608 
	C130.985306,156.144577 125.812889,160.802078 123.005356,166.603958 
	C120.134827,172.536026 118.262024,179.582672 118.223389,186.154739 
	C117.871643,245.983917 118.017387,305.816010 118.015587,365.647247 
	C118.015121,381.259674 123.906433,393.757263 137.315201,402.323853 
	C137.971039,402.742889 138.380539,403.547516 139.000977,404.497467 
	C119.289566,404.881256 99.452042,405.638123 79.683121,404.792145 
	C61.856022,404.029297 46.950039,390.635773 44.022144,372.534485 
	C43.476059,369.158417 43.046349,365.717773 43.042881,362.306488 
	C42.983673,304.033966 42.992386,245.761353 43.003872,187.488770 
	C43.008205,165.521164 61.508671,147.574677 82.397865,147.961792 
	C93.881943,148.174622 105.380730,147.752457 116.858139,148.101410 
	C122.837242,148.283173 128.784378,149.516251 134.932800,150.629608 
M96.360573,298.588867 
	C91.664322,289.210938 86.871681,279.879456 82.316002,270.433746 
	C80.297974,266.249573 77.276291,264.109192 72.765472,265.192657 
	C68.365120,266.249542 66.979584,269.749878 66.991035,273.984802 
	C67.014893,282.808990 66.992455,291.633301 66.993416,300.457581 
	C66.994606,311.446289 66.919098,322.435852 67.036636,333.423370 
	C67.099480,339.299011 70.517471,342.588928 75.615288,341.993408 
	C80.290543,341.447266 82.122246,338.469543 82.126091,334.055725 
	C82.133842,325.157745 82.128395,316.259796 82.128395,307.361816 
	C83.974174,308.508362 84.794655,309.855469 85.501091,311.259979 
	C89.690079,319.588257 93.925446,327.894531 97.993561,336.281738 
	C100.050323,340.522156 102.951698,343.031921 107.853661,341.797058 
	C112.509857,340.624146 113.180298,336.943542 113.170448,332.814941 
	C113.124008,313.335052 113.171402,293.854950 113.137848,274.375000 
	C113.126572,267.830872 110.700615,264.916931 105.533875,264.978027 
	C100.669960,265.035553 98.050529,268.362823 98.010056,274.698029 
	C97.963257,282.023560 98.036980,289.350159 97.937790,296.674652 
	C97.926750,297.490112 97.129303,298.294952 96.360573,298.588867 
z"/>
<path fill="#EFECFE" opacity="1.000000" stroke="none" 
	d="
M261.026093,404.500488 
	C263.349731,404.386414 265.673218,404.176544 267.997040,404.173126 
	C291.807678,404.138092 315.619751,404.291412 339.428619,404.078796 
	C360.117096,403.894073 376.923859,387.125427 377.008026,366.436676 
	C377.178711,324.477295 377.180603,282.516235 377.006989,240.556854 
	C376.921539,219.905823 360.059204,203.142227 339.369385,202.952942 
	C313.563751,202.716858 287.755310,202.790924 261.485352,202.224915 
	C260.975800,177.716232 260.928955,153.713669 260.999420,129.382202 
	C263.589813,125.675766 263.141418,122.328926 261.030212,118.531425 
	C261.364258,104.602119 261.341370,91.121284 262.131897,77.688309 
	C262.548492,70.609070 264.085754,63.472988 270.753662,59.006630 
	C276.897247,72.433754 287.510101,78.761238 302.112579,78.653404 
	C307.604218,78.612854 313.131012,78.762817 318.578369,78.205956 
	C331.528809,76.882088 341.405090,68.317238 345.045654,55.765938 
	C347.049744,48.856689 348.555420,47.620163 355.520721,47.580837 
	C365.182343,47.526287 374.845947,47.463825 384.506256,47.590820 
	C408.151794,47.901653 423.842987,63.716194 423.851471,87.386467 
	C423.890228,195.333923 423.890594,303.281403 423.849854,411.228882 
	C423.841003,434.757568 407.740540,450.916687 384.377319,450.950684 
	C350.893860,450.999451 317.410217,450.946075 283.211273,450.658752 
	C275.607269,446.403107 269.763672,441.434204 266.031464,434.174988 
	C261.199738,424.777191 261.072205,414.663757 261.026093,404.500488 
M390.854645,112.892570 
	C388.359131,111.910553 385.611481,109.706856 383.412323,110.160721 
	C374.502960,111.999443 365.693298,114.431374 356.990570,117.111290 
	C353.062500,118.320908 351.307251,121.793701 352.282257,125.879845 
	C353.239319,129.890778 356.131592,131.962845 360.327759,131.908981 
	C361.455902,131.894485 362.580292,131.584961 364.168335,131.339447 
	C364.168335,133.977020 364.101837,136.445099 364.181854,138.908417 
	C364.361481,144.438248 367.483612,147.963364 372.072693,147.921371 
	C376.662933,147.879364 379.723541,144.354843 379.848053,138.795212 
	C379.936005,134.868500 379.865112,130.938248 379.865112,127.190300 
	C392.552521,122.522446 393.702576,121.113274 390.854645,112.892570 
M283.811523,152.332504 
	C288.322693,157.226639 291.681549,157.445145 296.534363,153.160187 
	C303.746826,146.791718 311.035492,146.798401 318.323425,153.180130 
	C322.585693,156.912430 327.009949,157.040543 330.174316,153.523315 
	C333.159027,150.205780 332.730194,145.794800 329.051575,141.974457 
	C317.531738,130.010773 297.758392,129.949951 285.983246,141.744507 
	C283.105255,144.627243 281.965912,147.754044 283.811523,152.332504 
z"/>
<path fill="#D5D4FE" opacity="1.000000" stroke="none" 
	d="
M260.882080,129.711121 
	C260.928955,153.713669 260.975800,177.716232 261.024414,202.150360 
	C237.987457,202.634216 214.948715,202.686493 191.453857,202.650330 
	C191.009109,164.926666 191.648605,127.277313 190.801376,89.661446 
	C190.275269,66.302513 206.470169,45.969543 233.042267,47.561779 
	C234.369156,47.641289 235.705933,47.555897 237.502609,47.516968 
	C243.892395,47.517937 249.817673,47.568302 255.742996,47.576435 
	C267.082428,47.592003 267.082428,47.582031 270.706238,58.652107 
	C264.085754,63.472988 262.548492,70.609070 262.131897,77.688309 
	C261.341370,91.121284 261.364258,104.602119 260.727295,118.348595 
	C250.277847,115.716103 240.227905,112.469749 229.982483,110.051765 
	C226.213501,109.162262 223.459137,112.131592 222.697083,116.036354 
	C221.884796,120.198540 223.640579,124.107307 227.578430,124.570969 
	C235.258621,125.475250 235.707443,130.055954 235.046478,135.907928 
	C234.935349,136.891708 235.008972,137.899628 235.036743,138.895294 
	C235.190735,144.418793 238.263855,147.953613 242.869797,147.922379 
	C247.241791,147.892731 250.363815,144.488846 250.628784,139.284561 
	C250.758820,136.730591 250.651321,134.164520 250.651321,132.889145 
	C254.826981,131.592041 257.854523,130.651581 260.882080,129.711121 
z"/>
<path fill="#D5D4FE" opacity="1.000000" stroke="none" 
	d="
M260.561493,404.404358 
	C261.072205,414.663757 261.199738,424.777191 266.031464,434.174988 
	C269.763672,441.434204 275.607269,446.403107 282.746399,450.594177 
	C266.635773,450.871613 250.274658,450.936127 233.448486,451.071442 
	C223.302475,451.191895 214.110809,449.500000 206.220459,443.406616 
	C196.225433,435.687866 191.244995,425.444794 191.041077,412.850037 
	C191.000702,410.355988 191.013977,407.861053 190.992523,404.947144 
	C204.901978,404.408783 218.821259,404.245239 232.740952,404.186798 
	C241.859268,404.148529 250.978226,404.262451 260.561493,404.404358 
z"/>
<path fill="#FB8998" opacity="1.000000" stroke="none" 
	d="
M233.991638,287.153625 
	C244.643936,311.511505 229.854996,336.643707 206.879471,341.444458 
	C204.464142,341.949188 201.928970,342.053375 199.450287,342.046021 
	C194.277679,342.030640 191.134491,339.344330 191.096909,334.226074 
	C190.946671,313.764160 190.949203,293.299957 191.091843,272.837952 
	C191.127197,267.768860 194.273849,264.887054 199.493866,265.008240 
	C215.254547,265.374084 226.496338,273.067505 233.991638,287.153625 
M206.859787,312.477417 
	C206.859787,316.464539 206.859787,320.451660 206.859787,324.844269 
	C216.857727,321.168732 222.477325,311.990692 222.006439,302.032104 
	C221.627075,294.009399 214.807236,283.609894 206.859238,282.751312 
	C206.859238,292.369659 206.859238,301.926849 206.859787,312.477417 
z"/>
<path fill="#FB8998" opacity="1.000000" stroke="none" 
	d="
M168.116028,336.154449 
	C153.975143,348.187683 133.517532,341.305847 129.603836,324.076477 
	C129.166962,322.153259 129.027557,320.126678 129.020935,318.147156 
	C128.973129,303.830811 128.977905,289.514252 129.002274,275.197784 
	C129.013809,268.418213 131.540375,265.038879 136.532944,264.969208 
	C141.779175,264.895966 144.714478,268.277832 144.786560,275.237427 
	C144.936539,289.718872 144.885620,304.202881 144.841248,318.685608 
	C144.828003,323.010040 146.964233,326.330688 150.952805,326.397888 
	C153.684982,326.443909 156.814423,324.156860 159.071487,322.136536 
	C160.188812,321.136414 159.952225,318.384827 159.961517,316.423981 
	C160.027069,302.607208 159.915237,288.789062 160.076385,274.973846 
	C160.104095,272.597870 160.601089,269.867676 161.858063,267.937042 
	C164.929886,263.218872 172.195007,264.034424 174.556961,269.150116 
	C175.173676,270.485840 175.690475,272.025635 175.681488,273.468140 
	C175.581055,289.598541 175.866776,305.758789 174.881821,321.839508 
	C174.587387,326.646667 170.655319,331.231018 168.116028,336.154449 
z"/>
<path fill="#FB8898" opacity="1.000000" stroke="none" 
	d="
M280.809509,280.085327 
	C280.174164,280.085999 280.007751,280.086304 279.841339,280.086304 
	C267.722931,280.085297 267.625977,280.096527 269.045593,292.303772 
	C269.198914,293.622192 271.176056,295.579254 272.498810,295.749298 
	C276.266083,296.233643 280.138641,295.816742 283.958282,295.997192 
	C288.816650,296.226715 292.079926,299.575531 291.883606,303.834686 
	C291.694275,307.942963 288.508881,310.908295 283.906586,311.065430 
	C280.415680,311.184631 276.909729,311.259460 273.425690,311.071625 
	C269.900818,310.881561 268.781464,312.401489 268.842896,315.789276 
	C269.082275,328.989685 267.502075,326.688080 279.423645,326.941803 
	C281.582611,326.987762 283.814728,326.777649 285.882202,327.253876 
	C289.728760,328.139923 292.038086,330.826904 291.801605,334.799286 
	C291.559723,338.862793 289.294495,341.877289 284.944885,341.991455 
	C276.630554,342.209686 268.299744,342.248169 259.988800,341.970947 
	C255.381851,341.817291 253.157471,338.464935 253.128387,334.222870 
	C252.988068,313.755157 252.980179,293.285431 253.124405,272.817780 
	C253.159851,267.787994 256.279633,265.074219 261.555756,264.967896 
	C268.542358,264.827118 275.534302,264.871246 282.522980,264.938141 
	C288.324432,264.993683 291.809814,267.833923 291.893036,272.379425 
	C291.976471,276.935486 288.575012,279.809509 282.776062,280.075623 
	C282.277771,280.098480 281.777679,280.082611 280.809509,280.085327 
z"/>
<path fill="#FB8898" opacity="1.000000" stroke="none" 
	d="
M320.463196,267.218262 
	C329.641235,263.285065 338.888489,264.969604 347.951630,265.329193 
	C351.813080,265.482391 354.089783,268.844330 353.831482,272.808502 
	C353.566925,276.868225 351.282654,279.776855 346.917511,279.983337 
	C341.761749,280.227173 336.575470,279.881042 331.425873,280.186218 
	C325.113281,280.560242 321.539276,285.464508 323.492676,290.679749 
	C325.108612,294.994141 328.796143,295.650604 332.803986,296.013824 
	C345.128723,297.130737 354.240204,307.384491 353.982422,319.658539 
	C353.727203,331.810699 343.748383,341.843384 331.588623,342.072083 
	C326.257690,342.172363 320.920593,342.192810 315.591217,342.057129 
	C310.742035,341.933685 307.315582,338.639557 307.359894,334.457672 
	C307.404236,330.276428 310.830017,327.124390 315.730133,326.978882 
	C319.892975,326.855255 324.062347,326.971283 328.228271,326.927734 
	C334.636932,326.860748 337.876556,324.400055 338.095520,319.499634 
	C338.325409,314.353912 335.531189,311.732574 329.125336,311.084473 
	C317.414032,309.899597 309.765869,302.850433 307.804596,291.433655 
	C306.119568,281.624878 310.429108,273.207275 320.463196,267.218262 
z"/>
<path fill="#FB8798" opacity="1.000000" stroke="none" 
	d="
M96.528564,298.846802 
	C97.129303,298.294952 97.926750,297.490112 97.937790,296.674652 
	C98.036980,289.350159 97.963257,282.023560 98.010056,274.698029 
	C98.050529,268.362823 100.669960,265.035553 105.533875,264.978027 
	C110.700615,264.916931 113.126572,267.830872 113.137848,274.375000 
	C113.171402,293.854950 113.124008,313.335052 113.170448,332.814941 
	C113.180298,336.943542 112.509857,340.624146 107.853661,341.797058 
	C102.951698,343.031921 100.050323,340.522156 97.993561,336.281738 
	C93.925446,327.894531 89.690079,319.588257 85.501091,311.259979 
	C84.794655,309.855469 83.974174,308.508362 82.128395,307.361816 
	C82.128395,316.259796 82.133842,325.157745 82.126091,334.055725 
	C82.122246,338.469543 80.290543,341.447266 75.615288,341.993408 
	C70.517471,342.588928 67.099480,339.299011 67.036636,333.423370 
	C66.919098,322.435852 66.994606,311.446289 66.993416,300.457581 
	C66.992455,291.633301 67.014893,282.808990 66.991035,273.984802 
	C66.979584,269.749878 68.365120,266.249542 72.765472,265.192657 
	C77.276291,264.109192 80.297974,266.249573 82.316002,270.433746 
	C86.871681,279.879456 91.664322,289.210938 96.528564,298.846802 
z"/>
<path fill="#2F424D" opacity="1.000000" stroke="none" 
	d="
M260.999390,129.382202 
	C257.854523,130.651581 254.826981,131.592041 250.651321,132.889145 
	C250.651321,134.164520 250.758820,136.730591 250.628784,139.284561 
	C250.363815,144.488846 247.241791,147.892731 242.869797,147.922379 
	C238.263855,147.953613 235.190735,144.418793 235.036743,138.895294 
	C235.008972,137.899628 234.935349,136.891708 235.046478,135.907928 
	C235.707443,130.055954 235.258621,125.475250 227.578430,124.570969 
	C223.640579,124.107307 221.884796,120.198540 222.697083,116.036354 
	C223.459137,112.131592 226.213501,109.162262 229.982483,110.051765 
	C240.227905,112.469749 250.277847,115.716103 260.708191,118.816940 
	C263.141418,122.328926 263.589813,125.675766 260.999390,129.382202 
z"/>
<path fill="#2F434D" opacity="1.000000" stroke="none" 
	d="
M391.067413,113.242859 
	C393.702576,121.113274 392.552521,122.522446 379.865112,127.190300 
	C379.865112,130.938248 379.936005,134.868500 379.848053,138.795212 
	C379.723541,144.354843 376.662933,147.879364 372.072693,147.921371 
	C367.483612,147.963364 364.361481,144.438248 364.181854,138.908417 
	C364.101837,136.445099 364.168335,133.977020 364.168335,131.339447 
	C362.580292,131.584961 361.455902,131.894485 360.327759,131.908981 
	C356.131592,131.962845 353.239319,129.890778 352.282257,125.879845 
	C351.307251,121.793701 353.062500,118.320908 356.990570,117.111290 
	C365.693298,114.431374 374.502960,111.999443 383.412323,110.160721 
	C385.611481,109.706856 388.359131,111.910553 391.067413,113.242859 
z"/>
<path fill="#2E424C" opacity="1.000000" stroke="none" 
	d="
M283.588074,151.996429 
	C281.965912,147.754044 283.105255,144.627243 285.983246,141.744507 
	C297.758392,129.949951 317.531738,130.010773 329.051575,141.974457 
	C332.730194,145.794800 333.159027,150.205780 330.174316,153.523315 
	C327.009949,157.040543 322.585693,156.912430 318.323425,153.180130 
	C311.035492,146.798401 303.746826,146.791718 296.534363,153.160187 
	C291.681549,157.445145 288.322693,157.226639 283.588074,151.996429 
z"/>
<path fill="#FCE199" opacity="1.000000" stroke="none" 
	d="
M206.859512,311.980713 
	C206.859238,301.926849 206.859238,292.369659 206.859238,282.751312 
	C214.807236,283.609894 221.627075,294.009399 222.006439,302.032104 
	C222.477325,311.990692 216.857727,321.168732 206.859787,324.844269 
	C206.859787,320.451660 206.859787,316.464539 206.859512,311.980713 
z"/>
</svg>