<svg version="1.1" id="Layer_1" xmlns="http://www.w3.org/2000/svg" xmlns:xlink="http://www.w3.org/1999/xlink" x="0px" y="0px"
	 width="100%" viewBox="0 0 500 500" enable-background="new 0 0 500 500" xml:space="preserve">
<path fill="#000000" opacity="1.000000" stroke="none" 
	d="
M471.000000,501.000000 
	C314.000031,501.000000 157.500076,501.000000 1.000084,501.000000 
	C1.000056,334.333405 1.000056,167.666824 1.000028,1.000173 
	C167.666550,1.000116 334.333099,1.000116 500.999756,1.000058 
	C500.999817,167.666519 500.999817,334.333038 500.999908,500.999756 
	C491.166656,501.000000 481.333344,501.000000 471.000000,501.000000 
M380.638824,237.171112 
	C377.998993,234.452896 375.560486,231.921234 371.096680,231.937378 
	C330.598877,232.083771 290.100311,232.023331 249.601990,232.015289 
	C245.419434,232.014465 242.333939,233.577072 240.235413,238.219894 
	C240.148453,251.918198 240.046173,265.616486 240.022812,279.314911 
	C240.021729,279.954224 240.725266,280.594696 241.046875,281.932648 
	C242.947617,284.587128 244.586975,287.097198 248.673523,287.083252 
	C289.959686,286.942383 331.246582,286.947174 372.532959,287.046814 
	C376.985046,287.057587 379.577362,285.228455 381.748718,280.797607 
	C381.839386,267.095490 381.945251,253.393387 381.972534,239.691147 
	C381.973785,239.053055 381.272400,238.413559 380.638824,237.171112 
z"/>
<path fill="#F3991C" opacity="1.000000" stroke="none" 
	d="
M380.930878,281.201385 
	C379.577362,285.228455 376.985046,287.057587 372.532959,287.046814 
	C331.246582,286.947174 289.959686,286.942383 248.673523,287.083252 
	C244.586975,287.097198 242.947617,284.587128 241.123016,281.098694 
	C241.150269,266.117188 241.101410,251.969666 241.052536,237.822128 
	C242.333939,233.577072 245.419434,232.014465 249.601990,232.015289 
	C290.100311,232.023331 330.598877,232.083771 371.096680,231.937378 
	C375.560486,231.921234 377.998993,234.452896 380.732483,237.958038 
	C380.861023,252.897110 380.895935,267.049255 380.930878,281.201385 
M354.280243,271.666931 
	C354.494019,271.396423 354.707825,271.125946 355.002686,270.128754 
	C355.573822,269.827698 356.144958,269.526642 356.716095,269.225616 
	C359.250122,274.725861 363.156769,272.565308 367.088959,271.420715 
	C366.589142,270.144043 366.231201,269.229767 365.707306,267.807861 
	C365.489899,267.528442 365.272461,267.249023 364.995392,266.978302 
	C364.995392,266.978302 365.046814,266.945526 365.057953,266.100616 
	C365.048492,264.412750 365.039032,262.724854 365.004120,260.997162 
	C365.004120,260.997162 365.039795,261.030487 365.766327,260.928772 
	C366.388519,259.550293 367.010712,258.171814 367.645020,256.758698 
	C367.645020,256.758698 367.649414,256.722321 368.179596,256.313324 
	C367.762726,254.546875 367.345856,252.780441 366.991516,251.022125 
	C366.991516,251.022125 366.957336,251.075089 366.930542,250.331100 
	C365.424194,248.962387 363.990753,246.530716 362.398010,246.421478 
	C357.332947,246.074066 352.208588,246.591660 346.711487,247.063232 
	C346.711487,247.063232 346.244965,247.211227 345.830261,247.427155 
	C344.876160,247.303619 343.922028,247.180099 342.044312,246.924240 
	C336.955719,246.924240 331.867126,246.924240 326.511688,246.924240 
	C326.511688,255.455307 326.511688,263.473145 326.511688,272.431458 
	C332.315338,271.940369 337.755646,271.480042 343.902222,271.013763 
	C344.608307,271.002441 345.314392,270.991089 346.295410,271.376190 
	C346.491699,271.632843 346.713593,271.864960 347.596619,272.477814 
	C349.729248,272.261200 351.861908,272.044556 353.992188,271.967834 
	C353.992188,271.967834 353.852325,271.964752 354.280243,271.666931 
M275.583923,272.389282 
	C278.044464,272.566315 280.762451,275.526611 282.845001,271.321869 
	C282.845001,271.321869 283.003113,270.959930 283.434875,270.265717 
	C283.720978,263.833038 284.007080,257.400391 284.293152,250.967712 
	C285.006042,253.011627 284.904236,255.087784 285.026825,257.150604 
	C285.299988,261.746490 285.685242,266.335693 286.567108,271.586060 
	C291.602905,271.586060 296.638672,271.586060 301.941650,271.586060 
	C301.812469,269.561890 301.711182,267.974548 301.601410,266.253967 
	C299.016968,266.053955 296.772644,265.880280 294.039795,265.668793 
	C294.039795,259.318817 294.039795,253.255997 294.039795,246.380539 
	C290.929962,247.013962 288.472626,247.514481 285.259399,248.001205 
	C284.503418,247.999863 283.747406,247.998520 282.736298,247.546936 
	C282.497406,247.298782 282.258514,247.050644 281.422028,246.430115 
	C279.609833,246.520584 277.797638,246.611053 275.493439,246.886841 
	C275.325165,246.935745 275.156860,246.984634 274.176239,246.846558 
	C268.113129,246.798355 262.050049,246.750168 255.205261,247.018417 
	C255.105560,255.366745 255.005859,263.715088 255.582275,272.501373 
	C262.235229,273.652039 262.235229,273.652039 264.233002,264.830688 
	C265.924072,263.962585 267.458679,263.174805 269.171692,261.439056 
	C269.119781,259.837463 269.067871,258.235870 268.756866,256.109222 
	C267.745087,255.550400 266.733307,254.991592 265.661621,254.399689 
	C267.565613,253.948410 269.284027,253.541122 271.432556,252.994598 
	C271.432556,252.994598 271.880554,252.933914 272.572327,253.309509 
	C273.034424,255.132904 273.723785,256.933167 273.912048,258.784393 
	C274.323883,262.834015 274.481293,266.909515 274.900391,271.437592 
	C274.900391,271.437592 275.034515,271.908173 275.583923,272.389282 
M317.298798,254.565231 
	C319.416626,253.769424 321.534454,252.973618 324.047760,252.029205 
	C323.987244,250.667053 323.910736,248.946304 323.833984,247.219299 
	C316.655853,247.219299 309.946411,247.219299 303.294861,247.219299 
	C303.294861,249.301056 303.294861,251.027603 303.294861,252.795868 
	C305.404388,252.973602 307.170197,253.122375 309.523560,253.320663 
	C309.523560,259.601990 309.523560,265.642853 309.523560,271.716125 
	C312.395813,271.716125 314.641937,271.716125 317.250702,271.716125 
	C317.250702,266.138611 317.250702,260.840576 317.298798,254.565231 
z"/>
<path fill="#F5CD96" opacity="1.000000" stroke="none" 
	d="
M240.643982,238.021011 
	C241.101410,251.969666 241.150269,266.117188 241.149902,280.749695 
	C240.725266,280.594696 240.021729,279.954224 240.022812,279.314911 
	C240.046173,265.616486 240.148453,251.918198 240.643982,238.021011 
z"/>
<path fill="#F5CD96" opacity="1.000000" stroke="none" 
	d="
M381.339783,280.999512 
	C380.895935,267.049255 380.861023,252.897110 380.862183,238.259857 
	C381.272400,238.413559 381.973785,239.053055 381.972534,239.691147 
	C381.945251,253.393387 381.839386,267.095490 381.339783,280.999512 
z"/>
<path fill="#120602" opacity="1.000000" stroke="none" 
	d="
M346.961090,272.072571 
	C346.713593,271.864960 346.491699,271.632843 346.260406,270.721252 
	C346.231903,262.447937 346.238434,254.829575 346.244965,247.211227 
	C346.244965,247.211227 346.711487,247.063232 347.359955,246.985199 
	C349.988434,246.914093 351.970551,246.982285 353.948090,246.915756 
	C358.790100,246.752914 363.615204,246.574265 366.957336,251.075089 
	C366.957336,251.075089 366.991516,251.022125 366.981689,251.384918 
	C367.197723,253.405930 367.423553,255.064117 367.649414,256.722321 
	C367.649414,256.722321 367.645020,256.758698 367.434143,257.006042 
	C366.495422,258.512421 365.767609,259.771454 365.039795,261.030487 
	C365.039795,261.030487 365.004120,260.997162 364.719971,261.074249 
	C360.588165,263.509949 364.229187,265.078888 365.046814,266.945526 
	C365.046814,266.945526 364.995392,266.978302 365.042145,267.258118 
	C365.350342,267.797119 365.611816,268.056305 365.873291,268.315491 
	C366.231201,269.229767 366.589142,270.144043 367.088959,271.420715 
	C363.156769,272.565308 359.250122,274.725861 356.716095,269.225616 
	C356.144958,269.526642 355.573822,269.827698 354.706512,270.590271 
	C354.224335,271.356079 354.038330,271.660431 353.852325,271.964752 
	C353.852325,271.964752 353.992188,271.967834 353.552673,271.947388 
	C351.062500,271.975525 349.011780,272.024048 346.961090,272.072571 
M357.870300,257.669891 
	C358.262787,256.511993 358.655243,255.354126 359.047729,254.196228 
	C357.834106,253.898956 356.604126,253.349457 355.414856,253.426758 
	C354.929230,253.458313 353.992706,255.308212 354.189209,255.538315 
	C354.971924,256.454712 356.120270,257.058868 357.870300,257.669891 
z"/>
<path fill="#120602" opacity="1.000000" stroke="none" 
	d="
M343.195984,271.019745 
	C337.755646,271.480042 332.315338,271.940369 326.511688,272.431458 
	C326.511688,263.473145 326.511688,255.455307 326.511688,246.924240 
	C331.867126,246.924240 336.955719,246.924240 342.519775,247.425629 
	C342.917053,249.514450 342.838898,251.101883 342.770050,252.500565 
	C339.553406,253.006012 336.753448,253.445969 333.953522,253.885941 
	C334.058868,254.555313 334.164215,255.224686 334.269562,255.894058 
	C336.646301,256.051208 339.023010,256.208374 341.609650,256.379395 
	C341.609650,258.328827 341.609650,260.016571 341.609650,262.012024 
	C339.814270,262.012024 338.288849,261.767609 336.897369,262.094025 
	C335.893616,262.329468 335.067993,263.324524 334.162903,263.980774 
	C335.128296,264.592194 336.036682,265.574860 337.071594,265.733887 
	C338.938721,266.020813 340.881561,265.815033 342.782135,265.815033 
	C342.961304,268.068146 343.078644,269.543945 343.195984,271.019745 
z"/>
<path fill="#120602" opacity="1.000000" stroke="none" 
	d="
M317.274750,255.053879 
	C317.250702,260.840576 317.250702,266.138611 317.250702,271.716125 
	C314.641937,271.716125 312.395813,271.716125 309.523560,271.716125 
	C309.523560,265.642853 309.523560,259.601990 309.523560,253.320663 
	C307.170197,253.122375 305.404388,252.973602 303.294861,252.795868 
	C303.294861,251.027603 303.294861,249.301056 303.294861,247.219299 
	C309.946411,247.219299 316.655853,247.219299 323.833984,247.219299 
	C323.910736,248.946304 323.987244,250.667053 324.047760,252.029205 
	C321.534454,252.973618 319.416626,253.769424 317.274750,255.053879 
z"/>
<path fill="#120602" opacity="1.000000" stroke="none" 
	d="
M254.906158,272.063416 
	C255.005859,263.715088 255.105560,255.366745 256.058044,246.950958 
	C261.837982,246.883514 266.765167,246.883514 271.880554,246.883514 
	C271.880554,249.336029 271.880554,251.134979 271.880554,252.933914 
	C271.880554,252.933914 271.432556,252.994598 270.773712,252.994064 
	C267.545990,252.993530 264.977112,252.993530 261.964081,252.993530 
	C262.636200,258.636627 266.849243,255.505386 269.015961,256.634277 
	C269.067871,258.235870 269.119781,259.837463 268.662231,261.938812 
	C266.231140,262.530457 264.309509,262.622345 262.290009,262.718933 
	C262.111816,266.071045 261.959595,268.934998 261.793304,272.063416 
	C259.155670,272.063416 257.030914,272.063416 254.906158,272.063416 
z"/>
<path fill="#120602" opacity="1.000000" stroke="none" 
	d="
M286.015289,248.014999 
	C288.472626,247.514481 290.929962,247.013962 294.039795,246.380539 
	C294.039795,253.255997 294.039795,259.318817 294.039795,265.668793 
	C296.772644,265.880280 299.016968,266.053955 301.601410,266.253967 
	C301.711182,267.974548 301.812469,269.561890 301.941650,271.586060 
	C296.638672,271.586060 291.602905,271.586060 286.398956,270.806458 
	C286.158966,262.689545 286.087128,255.352280 286.015289,248.014999 
z"/>
<path fill="#120602" opacity="1.000000" stroke="none" 
	d="
M282.019623,246.802505 
	C282.258514,247.050644 282.497406,247.298782 282.768311,248.232620 
	C282.867950,256.265503 282.935547,263.612732 283.003113,270.959930 
	C283.003113,270.959930 282.845001,271.321869 282.421814,271.587830 
	C279.677277,271.871887 277.355896,271.890045 275.034515,271.908173 
	C275.034515,271.908173 274.900391,271.437592 274.907166,270.746521 
	C274.938812,262.381470 274.963684,254.707504 274.988525,247.033539 
	C275.156860,246.984634 275.325165,246.935745 276.163513,246.883728 
	C278.562256,246.854568 280.290924,246.828537 282.019623,246.802505 
z"/>
<path fill="#D9922E" opacity="1.000000" stroke="none" 
	d="
M343.549103,271.016754 
	C343.078644,269.543945 342.961304,268.068146 342.782135,265.815033 
	C340.881561,265.815033 338.938721,266.020813 337.071594,265.733887 
	C336.036682,265.574860 335.128296,264.592194 334.162903,263.980774 
	C335.067993,263.324524 335.893616,262.329468 336.897369,262.094025 
	C338.288849,261.767609 339.814270,262.012024 341.609650,262.012024 
	C341.609650,260.016571 341.609650,258.328827 341.609650,256.379395 
	C339.023010,256.208374 336.646301,256.051208 334.269562,255.894058 
	C334.164215,255.224686 334.058868,254.555313 333.953522,253.885941 
	C336.753448,253.445969 339.553406,253.006012 342.770050,252.500565 
	C342.838898,251.101883 342.917053,249.514450 342.981567,247.491791 
	C343.922028,247.180099 344.876160,247.303619 346.037598,247.319183 
	C346.238434,254.829575 346.231903,262.447937 346.122925,270.523010 
	C345.314392,270.991089 344.608307,271.002441 343.549103,271.016754 
z"/>
<path fill="#D9922E" opacity="1.000000" stroke="none" 
	d="
M274.582397,246.940048 
	C274.963684,254.707504 274.938812,262.381470 274.828278,270.514954 
	C274.481293,266.909515 274.323883,262.834015 273.912048,258.784393 
	C273.723785,256.933167 273.034424,255.132904 272.226440,253.121704 
	C271.880554,251.134979 271.880554,249.336029 271.880554,246.883514 
	C266.765167,246.883514 261.837982,246.883514 256.448883,246.792740 
	C262.050049,246.750168 268.113129,246.798355 274.582397,246.940048 
z"/>
<path fill="#D9922E" opacity="1.000000" stroke="none" 
	d="
M283.218994,270.612823 
	C282.935547,263.612732 282.867950,256.265503 282.895874,248.457748 
	C283.747406,247.998520 284.503418,247.999863 285.637329,248.008102 
	C286.087128,255.352280 286.158966,262.689545 286.127808,270.477234 
	C285.685242,266.335693 285.299988,261.746490 285.026825,257.150604 
	C284.904236,255.087784 285.006042,253.011627 284.293152,250.967712 
	C284.007080,257.400391 283.720978,263.833038 283.218994,270.612823 
z"/>
<path fill="#D9922E" opacity="1.000000" stroke="none" 
	d="
M255.244217,272.282410 
	C257.030914,272.063416 259.155670,272.063416 261.793304,272.063416 
	C261.959595,268.934998 262.111816,266.071045 262.290009,262.718933 
	C264.309509,262.622345 266.231140,262.530457 268.573029,262.412781 
	C267.458679,263.174805 265.924072,263.962585 264.233002,264.830688 
	C262.235229,273.652039 262.235229,273.652039 255.244217,272.282410 
z"/>
<path fill="#D9922E" opacity="1.000000" stroke="none" 
	d="
M366.943939,250.703094 
	C363.615204,246.574265 358.790100,246.752914 353.948090,246.915756 
	C351.970551,246.982285 349.988434,246.914093 347.557770,246.841095 
	C352.208588,246.591660 357.332947,246.074066 362.398010,246.421478 
	C363.990753,246.530716 365.424194,248.962387 366.943939,250.703094 
z"/>
<path fill="#D9922E" opacity="1.000000" stroke="none" 
	d="
M268.886414,256.371765 
	C266.849243,255.505386 262.636200,258.636627 261.964081,252.993530 
	C264.977112,252.993530 267.545990,252.993530 270.558655,253.063690 
	C269.284027,253.541122 267.565613,253.948410 265.661621,254.399689 
	C266.733307,254.991592 267.745087,255.550400 268.886414,256.371765 
z"/>
<path fill="#D9922E" opacity="1.000000" stroke="none" 
	d="
M275.309204,272.148743 
	C277.355896,271.890045 279.677277,271.871887 282.426392,271.785217 
	C280.762451,275.526611 278.044464,272.566315 275.309204,272.148743 
z"/>
<path fill="#D9922E" opacity="1.000000" stroke="none" 
	d="
M365.052368,266.523071 
	C364.229187,265.078888 360.588165,263.509949 364.732697,261.094177 
	C365.039032,262.724854 365.048492,264.412750 365.052368,266.523071 
z"/>
<path fill="#D9922E" opacity="1.000000" stroke="none" 
	d="
M367.914490,256.517822 
	C367.423553,255.064117 367.197723,253.405930 366.950439,251.380859 
	C367.345856,252.780441 367.762726,254.546875 367.914490,256.517822 
z"/>
<path fill="#D9922E" opacity="1.000000" stroke="none" 
	d="
M347.278870,272.275208 
	C349.011780,272.024048 351.062500,271.975525 353.553864,271.877441 
	C351.861908,272.044556 349.729248,272.261200 347.278870,272.275208 
z"/>
<path fill="#D9922E" opacity="1.000000" stroke="none" 
	d="
M365.403046,260.979614 
	C365.767609,259.771454 366.495422,258.512421 367.428101,257.023376 
	C367.010712,258.171814 366.388519,259.550293 365.403046,260.979614 
z"/>
<path fill="#D9922E" opacity="1.000000" stroke="none" 
	d="
M281.720825,246.616302 
	C280.290924,246.828537 278.562256,246.854568 276.409485,246.791077 
	C277.797638,246.611053 279.609833,246.520584 281.720825,246.616302 
z"/>
<path fill="#D9922E" opacity="1.000000" stroke="none" 
	d="
M365.790283,268.061676 
	C365.611816,268.056305 365.350342,267.797119 365.071960,267.253784 
	C365.272461,267.249023 365.489899,267.528442 365.790283,268.061676 
z"/>
<path fill="#D9922E" opacity="1.000000" stroke="none" 
	d="
M354.066284,271.815857 
	C354.038330,271.660431 354.224335,271.356079 354.665985,270.953613 
	C354.707825,271.125946 354.494019,271.396423 354.066284,271.815857 
z"/>
<path fill="#D9922E" opacity="1.000000" stroke="none" 
	d="
M357.501770,257.724274 
	C356.120270,257.058868 354.971924,256.454712 354.189209,255.538315 
	C353.992706,255.308212 354.929230,253.458313 355.414856,253.426758 
	C356.604126,253.349457 357.834106,253.898956 359.047729,254.196228 
	C358.655243,255.354126 358.262787,256.511993 357.501770,257.724274 
z"/>
</svg>