<svg version="1.1" id="Layer_1" xmlns="http://www.w3.org/2000/svg" xmlns:xlink="http://www.w3.org/1999/xlink" x="0px" y="0px"
	 width="100%" viewBox="0 0 512 512" enable-background="new 0 0 512 512" xml:space="preserve">
<path fill="#000000" opacity="1.000000" stroke="none" 
	d="
M513.000000,250.000000 
	C513.000000,337.978638 513.000000,425.457275 513.000000,512.967957 
	C342.396362,512.967957 171.792694,512.967957 1.094520,512.967957 
	C1.094520,342.438049 1.094520,171.876038 1.094520,1.157005 
	C171.666550,1.157005 342.333252,1.157005 513.000000,1.157005 
	C513.000000,83.873932 513.000000,166.686966 513.000000,250.000000 
M241.691269,400.240295 
	C238.140961,398.664185 234.659576,396.893921 231.009781,395.598053 
	C229.313690,394.995819 226.701828,394.488831 225.504166,395.341644 
	C209.177307,406.967865 201.482178,423.131836 201.022263,443.927368 
	C201.070023,449.619110 201.117783,455.310883 201.023697,461.929993 
	C201.071274,469.287506 201.118851,476.645020 201.023880,484.923492 
	C201.023880,488.859009 201.023880,492.794556 201.023880,496.833038 
	C206.734192,496.833038 211.867859,496.833038 217.928879,496.976471 
	C225.286560,496.928833 232.644257,496.881195 240.929321,496.976868 
	C250.953873,496.928650 260.978424,496.880402 271.930298,496.974823 
	C285.528656,496.974823 299.127014,496.974823 312.837891,496.974823 
	C312.837891,481.607300 312.837891,466.805878 312.986359,451.085388 
	C312.269012,443.057892 311.551636,435.030396 310.745117,426.262726 
	C308.202393,421.161621 305.659698,416.060486 303.007965,410.251648 
	C299.019745,406.129944 295.031494,402.008240 290.763428,397.247559 
	C288.523010,395.079407 286.202759,392.661957 282.864594,395.061646 
	C276.004028,399.993530 268.023560,401.601105 259.106781,403.019836 
	C253.418915,402.307678 247.731064,401.595520 241.691269,400.240295 
M361.995483,322.925568 
	C362.567566,329.614685 365.159821,335.368408 370.001434,340.801849 
	C374.333160,346.725830 379.724976,351.190308 387.331543,353.783661 
	C402.919434,359.136108 420.402191,356.593872 432.846283,343.498108 
	C443.903595,331.861694 447.547516,313.530701 440.194763,297.709900 
	C437.491699,290.800415 432.628998,285.583191 426.711761,280.305145 
	C420.807983,277.925629 414.904205,275.546143 408.079803,273.020630 
	C392.661591,271.929932 379.444885,276.313660 369.699371,288.843384 
	C362.039856,298.691101 359.141479,309.762085 361.995483,322.925568 
M151.018524,302.184906 
	C149.596939,294.798431 145.216736,289.220703 139.371338,283.859680 
	C134.302322,280.961761 129.233307,278.063873 123.488342,274.927856 
	C121.015778,274.284607 118.572754,273.253143 116.065758,273.062378 
	C101.818855,271.978210 89.860519,276.498016 80.099258,287.276428 
	C71.196945,297.106384 67.167206,315.613220 72.044067,327.752991 
	C75.329018,333.182800 78.613968,338.612610 82.181282,344.674164 
	C87.772743,347.820526 93.364212,350.966919 99.375534,354.783997 
	C109.013641,356.817078 118.344894,356.892426 127.867180,353.194153 
	C146.416504,345.989868 158.101242,322.881989 151.018524,302.184906 
M235.231705,376.739380 
	C250.680725,387.185577 262.320679,387.688354 275.307495,379.287262 
	C290.932495,369.179596 292.919678,341.642456 277.773865,330.261902 
	C276.832520,329.327362 276.019165,328.195801 274.930328,327.488220 
	C261.417633,318.706848 243.008835,320.527374 232.143921,334.159393 
	C222.886902,345.774017 224.116898,366.928864 235.231705,376.739380 
M170.060028,89.821678 
	C171.355927,95.915894 172.651810,102.010109 173.992340,108.938095 
	C175.954941,115.971130 177.917557,123.004166 179.985214,130.820862 
	C183.951767,140.227585 187.918320,149.634308 192.000412,159.767807 
	C197.651672,168.876816 203.302948,177.985840 209.224289,187.725204 
	C213.444595,192.830780 217.664917,197.936371 222.163940,203.656845 
	C226.094574,207.475311 230.025208,211.293793 234.220367,215.720810 
	C237.443726,218.495743 240.667068,221.270676 244.178558,224.674149 
	C247.629532,227.398117 250.905533,230.407257 254.626846,232.690674 
	C255.920929,233.484711 258.819366,233.165588 260.132782,232.197983 
	C275.966522,220.532990 290.171326,207.068405 301.993439,191.356323 
	C313.618835,175.905746 323.844849,159.545624 330.758514,140.671539 
	C331.173340,139.443481 331.643280,138.230942 331.994232,136.984909 
	C334.620544,127.660713 337.223297,118.329903 340.205902,108.281975 
	C341.415161,100.521881 342.624420,92.761787 343.976410,84.136688 
	C344.317352,79.593597 344.290894,74.985306 345.083008,70.522293 
	C346.357513,63.341282 343.521057,59.190201 336.079041,57.033642 
	C326.753479,52.338776 317.427917,47.643909 307.761932,42.318279 
	C298.856934,37.837933 289.951904,33.357586 280.710236,28.256159 
	C274.473450,25.226362 268.236664,22.196566 261.329926,18.829943 
	C259.218323,18.384699 256.621002,16.920288 255.073151,17.657976 
	C244.217209,22.831852 233.577820,28.460102 222.156921,34.010098 
	C219.754181,35.343285 217.388611,36.749275 214.942657,37.997795 
	C199.612869,45.822781 184.265137,53.612663 168.558243,61.599831 
	C169.105209,70.921646 169.635620,79.961571 170.060028,89.821678 
M135.930161,496.975006 
	C151.920151,496.975006 167.910126,496.975006 183.846588,496.975006 
	C183.846588,482.478882 183.846588,468.727081 183.985107,454.050171 
	C183.932144,443.369934 183.879196,432.689667 183.661102,421.207184 
	C182.540405,412.171753 181.284729,403.171478 176.964340,394.279877 
	C175.646179,391.868683 174.714417,389.115631 172.938889,387.109131 
	C167.138992,380.554779 161.031555,374.272552 154.771759,367.261353 
	C148.465439,361.605621 147.936066,361.549683 142.187988,365.353241 
	C129.238205,373.922272 114.981148,375.503479 99.221268,373.020050 
	C92.302109,369.999084 85.328079,367.094604 78.500771,363.878632 
	C76.699997,363.030396 75.777618,362.336731 73.551338,363.613892 
	C64.658531,368.715515 57.786636,375.835999 52.032036,384.074677 
	C41.529930,399.110260 38.528614,416.031158 40.027885,434.932129 
	C40.074017,450.622772 40.120148,466.313446 40.027855,482.928864 
	C40.027855,487.524841 40.027855,492.120819 40.027855,496.832703 
	C52.417854,496.832703 64.210106,496.832703 76.930199,496.972595 
	C87.287201,496.926178 97.644211,496.879730 108.928886,496.975189 
	C117.620110,496.928101 126.311325,496.880981 135.930161,496.975006 
M473.984039,455.075531 
	C473.933777,443.051392 473.883484,431.027222 473.983643,418.142273 
	C473.347870,407.210236 469.974670,397.173492 463.829590,387.305298 
	C458.628052,378.866943 452.244171,371.517761 443.759583,365.207245 
	C441.082672,365.210083 439.636597,361.088837 436.133759,363.298096 
	C432.093842,365.846069 427.822113,368.086700 423.474457,370.074493 
	C413.375916,374.691620 402.775665,374.991180 391.196045,373.018311 
	C383.293121,371.611816 376.072845,368.630188 369.430847,364.072205 
	C368.154602,363.196411 365.388062,362.598267 364.519928,363.322815 
	C357.851929,368.888306 350.440948,374.010986 345.231720,380.786560 
	C333.296967,396.309906 328.973602,414.500641 330.025604,434.930878 
	C330.072144,449.288940 330.118683,463.647034 330.022858,478.931702 
	C330.022858,484.864227 330.022858,490.796753 330.022858,496.833679 
	C339.399445,496.833679 348.201294,496.833679 357.930359,496.977081 
	C370.954559,496.929291 383.978760,496.881500 397.930115,496.977905 
	C409.620880,496.929688 421.311676,496.881470 433.929535,496.978394 
	C447.259796,496.978394 460.590057,496.978394 473.833282,496.978394 
	C473.833282,482.829193 473.833282,469.415833 473.984039,455.075531 
z"/>
<path fill="#F7901E" opacity="1.000000" stroke="none" 
	d="
M76.002350,496.832703 
	C64.210106,496.832703 52.417854,496.832703 40.027855,496.832703 
	C40.027855,492.120819 40.027855,487.524841 40.421692,482.390930 
	C42.346367,480.599304 43.997257,479.465851 45.390480,478.074402 
	C80.648170,442.861389 115.882172,407.624603 151.102142,372.373840 
	C152.506302,370.968445 153.733002,369.385742 155.042389,367.885651 
	C161.031555,374.272552 167.138992,380.554779 172.938889,387.109131 
	C174.714417,389.115631 175.646179,391.868683 176.573792,394.715820 
	C175.124969,395.932159 173.945938,396.591644 173.025894,397.510437 
	C141.583496,428.910767 110.151596,460.321686 78.793648,491.806213 
	C77.492546,493.112549 76.916298,495.140778 76.002350,496.832703 
z"/>
<path fill="#FCC81B" opacity="1.000000" stroke="none" 
	d="
M444.051453,365.834808 
	C452.244171,371.517761 458.628052,378.866943 463.679626,387.807373 
	C460.355804,391.703644 457.275116,395.190857 453.993591,398.477570 
	C423.061890,429.457977 392.085999,460.394226 361.168427,491.388702 
	C359.568420,492.992645 358.382080,495.009216 357.003143,496.833679 
	C348.201294,496.833679 339.399445,496.833679 330.022858,496.833679 
	C330.022858,490.796753 330.022858,484.864227 330.444580,478.446259 
	C332.724335,476.660339 334.823303,475.601440 336.405029,474.023956 
	C371.023651,439.498322 405.588348,404.918640 440.143982,370.329926 
	C441.543762,368.928802 442.753296,367.337494 444.051453,365.834808 
z"/>
<path fill="#F6861F" opacity="1.000000" stroke="none" 
	d="
M154.907074,367.573486 
	C153.733002,369.385742 152.506302,370.968445 151.102142,372.373840 
	C115.882172,407.624603 80.648170,442.861389 45.390480,478.074402 
	C43.997257,479.465851 42.346367,480.599304 40.490906,481.928528 
	C40.120148,466.313446 40.074017,450.622772 40.425903,434.391113 
	C42.846619,432.435242 45.125328,431.278473 46.852283,429.565430 
	C63.444420,413.106903 79.993172,396.603546 96.395889,379.956848 
	C98.120026,378.207062 98.826180,375.454193 100.004631,373.166687 
	C114.981148,375.503479 129.238205,373.922272 142.187988,365.353241 
	C147.936066,361.549683 148.465439,361.605621 154.907074,367.573486 
z"/>
<path fill="#F36421" opacity="1.000000" stroke="none" 
	d="
M191.884888,159.041016 
	C187.918320,149.634308 183.951767,140.227585 180.277283,130.360229 
	C182.238129,128.574554 184.054153,127.397308 185.553925,125.902702 
	C216.729797,94.834290 247.877579,63.737617 278.980530,32.596233 
	C279.944336,31.631231 280.370239,30.129009 281.046906,28.877243 
	C289.951904,33.357586 298.856934,37.837933 307.679901,42.856697 
	C306.860687,44.295506 306.194275,45.266548 305.375977,46.085976 
	C284.087769,67.403542 262.808472,88.730209 241.427948,109.954880 
	C239.979874,111.392387 237.749374,112.041695 235.568832,112.913940 
	C234.579193,112.052902 233.852859,111.376350 233.235992,110.611519 
	C229.114624,105.501564 224.257599,104.733238 219.993896,108.544586 
	C215.906403,112.198418 216.105072,117.402870 220.317688,121.882500 
	C222.055710,123.730682 223.477097,125.876633 224.874908,128.182495 
	C215.506897,137.775620 206.357269,147.124878 197.048706,156.313126 
	C195.722260,157.622421 193.625259,158.151077 191.884888,159.041016 
z"/>
<path fill="#FCC01B" opacity="1.000000" stroke="none" 
	d="
M443.905518,365.521027 
	C442.753296,367.337494 441.543762,368.928802 440.143982,370.329926 
	C405.588348,404.918640 371.023651,439.498322 336.405029,474.023956 
	C334.823303,475.601440 332.724335,476.660339 330.515747,477.982971 
	C330.118683,463.647034 330.072144,449.288940 330.482422,434.465698 
	C332.987549,433.138031 335.538300,432.784882 337.007568,431.335419 
	C354.633850,413.947205 372.136780,396.433014 389.535431,378.816925 
	C390.883270,377.452271 391.205078,375.074280 392.003754,373.167267 
	C402.775665,374.991180 413.375916,374.691620 423.474457,370.074493 
	C427.822113,368.086700 432.093842,365.846069 436.133759,363.298096 
	C439.636597,361.088837 441.082672,365.210083 443.905518,365.521027 
z"/>
<path fill="#FDD01A" opacity="1.000000" stroke="none" 
	d="
M357.466736,496.905396 
	C358.382080,495.009216 359.568420,492.992645 361.168427,491.388702 
	C392.085999,460.394226 423.061890,429.457977 453.993591,398.477570 
	C457.275116,395.190857 460.355804,391.703644 463.819550,388.130646 
	C469.974670,397.173492 473.347870,407.210236 473.583557,418.646667 
	C472.125183,419.931641 470.946625,420.591827 470.026154,421.510559 
	C446.582336,444.909637 423.146759,468.317139 399.794006,491.806915 
	C398.493744,493.114777 397.916687,495.141602 397.002991,496.833740 
	C383.978760,496.881500 370.954559,496.929291 357.466736,496.905396 
z"/>
<path fill="#F57520" opacity="1.000000" stroke="none" 
	d="
M221.885223,203.041962 
	C217.664917,197.936371 213.444595,192.830780 209.259430,187.116882 
	C221.568527,174.325470 233.842468,162.142395 246.456879,150.123779 
	C250.483795,152.088196 254.179871,153.226486 257.623322,149.859329 
	C274.261292,133.590042 290.932129,117.353653 307.464844,100.977928 
	C311.793823,96.690063 311.699921,93.114372 308.007874,87.783318 
	C308.751373,86.111298 309.146179,84.515739 310.141693,83.521866 
	C318.936523,74.741539 327.837982,66.068039 336.707947,57.362968 
	C343.521057,59.190201 346.357513,63.341282 345.083008,70.522293 
	C344.290894,74.985306 344.317352,79.593597 343.580322,84.643509 
	C341.537537,86.518860 339.770355,87.766769 338.261719,89.273552 
	C301.643951,125.846054 265.071594,162.464066 228.404083,198.986572 
	C226.637421,200.746262 224.076355,201.708405 221.885223,203.041962 
z"/>
<path fill="#F8981E" opacity="1.000000" stroke="none" 
	d="
M76.466278,496.902649 
	C76.916298,495.140778 77.492546,493.112549 78.793648,491.806213 
	C110.151596,460.321686 141.583496,428.910767 173.025894,397.510437 
	C173.945938,396.591644 175.124969,395.932159 176.507996,395.077972 
	C181.284729,403.171478 182.540405,412.171753 183.386810,421.627014 
	C180.886261,423.386749 178.283249,424.346863 176.491135,426.124451 
	C154.624283,447.814148 132.854614,469.602142 111.148109,491.452423 
	C109.730316,492.879639 109.033432,495.023041 108.001205,496.833282 
	C97.644211,496.879730 87.287201,496.926178 76.466278,496.902649 
z"/>
<path fill="#F25D21" opacity="1.000000" stroke="none" 
	d="
M280.878571,28.566704 
	C280.370239,30.129009 279.944336,31.631231 278.980530,32.596233 
	C247.877579,63.737617 216.729797,94.834290 185.553925,125.902702 
	C184.054153,127.397308 182.238129,128.574554 180.224762,129.968384 
	C177.917557,123.004166 175.954941,115.971130 174.192902,108.268593 
	C175.648407,106.512970 176.976379,105.499977 178.147552,104.330009 
	C205.200989,77.304459 232.245422,50.269871 259.248688,23.194242 
	C260.377228,22.062660 261.092224,20.518637 261.999878,19.166771 
	C268.236664,22.196566 274.473450,25.226362 280.878571,28.566704 
z"/>
<path fill="#F46D20" opacity="1.000000" stroke="none" 
	d="
M336.393494,57.198303 
	C327.837982,66.068039 318.936523,74.741539 310.141693,83.521866 
	C309.146179,84.515739 308.751373,86.111298 307.683319,87.620522 
	C302.241547,83.974335 299.792938,83.975594 294.236755,89.374619 
	C281.814972,101.445122 269.722809,113.854355 257.426971,126.055649 
	C255.775284,127.694649 253.722183,128.929123 251.976654,130.258255 
	C246.260208,124.148682 241.071487,118.603134 235.882767,113.057587 
	C237.749374,112.041695 239.979874,111.392387 241.427948,109.954880 
	C262.808472,88.730209 284.087769,67.403542 305.375977,46.085976 
	C306.194275,45.266548 306.860687,44.295506 307.850098,43.172081 
	C317.427917,47.643909 326.753479,52.338776 336.393494,57.198303 
z"/>
<path fill="#F57A1F" opacity="1.000000" stroke="none" 
	d="
M222.024582,203.349396 
	C224.076355,201.708405 226.637421,200.746262 228.404083,198.986572 
	C265.071594,162.464066 301.643951,125.846054 338.261719,89.273552 
	C339.770355,87.766769 341.537537,86.518860 343.508972,85.076019 
	C342.624420,92.761787 341.415161,100.521881 339.694214,108.717438 
	C336.659088,111.731163 334.159058,114.332848 331.608643,116.884163 
	C300.485138,148.018646 269.350250,179.141739 238.237350,210.286804 
	C236.720245,211.805450 235.378983,213.499756 233.955841,215.112259 
	C230.025208,211.293793 226.094574,207.475311 222.024582,203.349396 
z"/>
<path fill="#FED81A" opacity="1.000000" stroke="none" 
	d="
M397.466553,496.905823 
	C397.916687,495.141602 398.493744,493.114777 399.794006,491.806915 
	C423.146759,468.317139 446.582336,444.909637 470.026154,421.510559 
	C470.946625,420.591827 472.125183,419.931641 473.508362,419.077057 
	C473.883484,431.027222 473.933777,443.051392 473.558228,455.559387 
	C471.742981,456.874725 470.118439,457.468567 469.000549,458.574554 
	C457.751160,469.704254 446.549683,480.883270 435.446655,492.158691 
	C434.266571,493.357147 433.799988,495.258179 433.002441,496.833252 
	C421.311676,496.881470 409.620880,496.929688 397.466553,496.905823 
z"/>
<path fill="#FAAE1C" opacity="1.000000" stroke="none" 
	d="
M217.001511,496.833038 
	C211.867859,496.833038 206.734192,496.833038 201.023880,496.833038 
	C201.023880,492.794556 201.023880,488.859009 201.463318,484.457642 
	C203.978485,482.784485 206.417282,481.945343 208.073074,480.312256 
	C222.546371,466.037231 236.851929,451.592377 251.262741,437.253632 
	C264.487183,424.095367 277.780365,411.006165 291.043274,397.886536 
	C295.031494,402.008240 299.019745,406.129944 302.718262,410.675171 
	C300.992249,412.192627 299.408264,413.138580 298.141541,414.402466 
	C272.217163,440.268616 246.318970,466.160980 220.462280,492.094757 
	C219.097488,493.463593 218.145599,495.244141 217.001511,496.833038 
z"/>
<path fill="#F57D1F" opacity="1.000000" stroke="none" 
	d="
M234.088104,215.416534 
	C235.378983,213.499756 236.720245,211.805450 238.237350,210.286804 
	C269.350250,179.141739 300.485138,148.018646 331.608643,116.884163 
	C334.159058,114.332848 336.659088,111.731163 339.507996,109.077026 
	C337.223297,118.329903 334.620544,127.660713 331.994232,136.984909 
	C331.643280,138.230942 331.173340,139.443481 330.068115,140.865402 
	C327.073425,143.051147 324.636688,144.910202 322.485260,147.055374 
	C299.786865,169.687851 277.164978,192.397186 254.433731,214.996552 
	C251.158127,218.253143 247.416428,221.040909 243.890411,224.045624 
	C240.667068,221.270676 237.443726,218.495743 234.088104,215.416534 
z"/>
<path fill="#FBB81C" opacity="1.000000" stroke="none" 
	d="
M391.599915,373.092773 
	C391.205078,375.074280 390.883270,377.452271 389.535431,378.816925 
	C372.136780,396.433014 354.633850,413.947205 337.007568,431.335419 
	C335.538300,432.784882 332.987549,433.138031 330.554016,434.002106 
	C328.973602,414.500641 333.296967,396.309906 345.231720,380.786560 
	C350.440948,374.010986 357.851929,368.888306 364.519928,363.322815 
	C365.388062,362.598267 368.154602,363.196411 369.430847,364.072205 
	C376.072845,368.630188 383.293121,371.611816 391.599915,373.092773 
z"/>
<path fill="#F57D1F" opacity="1.000000" stroke="none" 
	d="
M99.612953,373.093384 
	C98.826180,375.454193 98.120026,378.207062 96.395889,379.956848 
	C79.993172,396.603546 63.444420,413.106903 46.852283,429.565430 
	C45.125328,431.278473 42.846619,432.435242 40.495079,433.927307 
	C38.528614,416.031158 41.529930,399.110260 52.032036,384.074677 
	C57.786636,375.835999 64.658531,368.715515 73.551338,363.613892 
	C75.777618,362.336731 76.699997,363.030396 78.500771,363.878632 
	C85.328079,367.094604 92.302109,369.999084 99.612953,373.093384 
z"/>
<path fill="#FAB31C" opacity="1.000000" stroke="none" 
	d="
M217.465195,496.904755 
	C218.145599,495.244141 219.097488,493.463593 220.462280,492.094757 
	C246.318970,466.160980 272.217163,440.268616 298.141541,414.402466 
	C299.408264,413.138580 300.992249,412.192627 302.772766,411.029022 
	C305.659698,416.060486 308.202393,421.161621 310.439209,426.652954 
	C308.390503,428.227203 306.408875,429.171082 304.940979,430.631348 
	C284.398102,451.067902 263.912506,471.562103 243.464172,492.093292 
	C242.099426,493.463562 241.146469,495.243958 240.001953,496.833557 
	C232.644257,496.881195 225.286560,496.928833 217.465195,496.904755 
z"/>
<path fill="#F89D1D" opacity="1.000000" stroke="none" 
	d="
M108.465042,496.904236 
	C109.033432,495.023041 109.730316,492.879639 111.148109,491.452423 
	C132.854614,469.602142 154.624283,447.814148 176.491135,426.124451 
	C178.283249,424.346863 180.886261,423.386749 183.469376,422.028137 
	C183.879196,432.689667 183.932144,443.369934 183.726379,454.212891 
	C183.055542,452.745880 182.643433,451.116150 182.117203,449.035126 
	C180.874542,449.965759 180.156387,450.380341 179.589310,450.946289 
	C165.387512,465.118805 151.189590,479.295349 137.041565,493.521454 
	C136.151505,494.416382 135.672699,495.720276 135.002563,496.833893 
	C126.311325,496.880981 117.620110,496.928101 108.465042,496.904236 
z"/>
<path fill="#F9A91D" opacity="1.000000" stroke="none" 
	d="
M290.903351,397.567047 
	C277.780365,411.006165 264.487183,424.095367 251.262741,437.253632 
	C236.851929,451.592377 222.546371,466.037231 208.073074,480.312256 
	C206.417282,481.945343 203.978485,482.784485 201.534576,483.997131 
	C201.118851,476.645020 201.071274,469.287506 201.451965,461.444580 
	C203.985031,459.740570 206.462479,458.899170 208.136765,457.244873 
	C224.323975,441.251526 240.408554,425.153534 256.415955,408.980072 
	C257.976349,407.403534 258.823334,405.120941 260.001495,403.166107 
	C268.023560,401.601105 276.004028,399.993530 282.864594,395.061646 
	C286.202759,392.661957 288.523010,395.079407 290.903351,397.567047 
z"/>
<path fill="#FBB81C" opacity="1.000000" stroke="none" 
	d="
M240.465637,496.905212 
	C241.146469,495.243958 242.099426,493.463562 243.464172,492.093292 
	C263.912506,471.562103 284.398102,451.067902 304.940979,430.631348 
	C306.408875,429.171082 308.390503,428.227203 310.483765,427.023071 
	C311.551636,435.030396 312.269012,443.057892 312.601044,451.650146 
	C308.784332,456.002777 305.479156,459.914886 301.896881,463.554260 
	C292.692902,472.904907 283.316254,482.085846 274.140930,491.464111 
	C272.734924,492.901184 272.031403,495.025635 271.002991,496.832184 
	C260.978424,496.880402 250.953873,496.928650 240.465637,496.905212 
z"/>
<path fill="#F25822" opacity="1.000000" stroke="none" 
	d="
M261.664917,18.998356 
	C261.092224,20.518637 260.377228,22.062660 259.248688,23.194242 
	C232.245422,50.269871 205.200989,77.304459 178.147552,104.330009 
	C176.976379,105.499977 175.648407,106.512970 174.170593,107.851707 
	C172.651810,102.010109 171.355927,95.915894 170.437653,89.336548 
	C171.260101,88.632805 171.802933,88.512665 172.135666,88.181450 
	C188.859222,71.534569 205.590744,54.895317 222.193970,38.129051 
	C223.003036,37.312023 222.670242,35.364258 222.869171,33.943039 
	C233.577820,28.460102 244.217209,22.831852 255.073151,17.657976 
	C256.621002,16.920288 259.218323,18.384699 261.664917,18.998356 
z"/>
<path fill="#F6821F" opacity="1.000000" stroke="none" 
	d="
M244.034485,224.359894 
	C247.416428,221.040909 251.158127,218.253143 254.433731,214.996552 
	C277.164978,192.397186 299.786865,169.687851 322.485260,147.055374 
	C324.636688,144.910202 327.073425,143.051147 329.746368,141.050140 
	C323.844849,159.545624 313.618835,175.905746 301.993439,191.356323 
	C290.171326,207.068405 275.966522,220.532990 260.132782,232.197983 
	C258.819366,233.165588 255.920929,233.484711 254.626846,232.690674 
	C250.905533,230.407257 247.629532,227.398117 244.034485,224.359894 
z"/>
<path fill="#FAB31C" opacity="1.000000" stroke="none" 
	d="
M386.958710,353.119019 
	C379.724976,351.190308 374.333160,346.725830 370.198181,340.200531 
	C371.295563,338.861359 372.266388,338.193787 373.086456,337.375244 
	C390.058929,320.433807 407.044861,303.505493 423.918091,286.465637 
	C425.356842,285.012665 426.021820,282.793457 427.046265,280.930206 
	C432.628998,285.583191 437.491699,290.800415 440.165649,298.311768 
	C437.946442,300.920471 435.680450,302.851196 433.578461,304.946442 
	C419.108521,319.369659 404.651764,333.806366 390.260590,348.308014 
	C388.912659,349.666290 388.047821,351.503937 386.958710,353.119019 
z"/>
<path fill="#F9A01D" opacity="1.000000" stroke="none" 
	d="
M278.041992,330.887024 
	C292.919678,341.642456 290.932495,369.179596 275.307495,379.287262 
	C262.320679,387.688354 250.680725,387.185577 235.260162,376.126648 
	C237.640884,372.727478 239.834183,369.786133 242.372543,367.181030 
	C254.210175,355.032166 266.143127,342.976227 278.041992,330.887024 
z"/>
<path fill="#F8981E" opacity="1.000000" stroke="none" 
	d="
M277.907928,330.574463 
	C266.143127,342.976227 254.210175,355.032166 242.372543,367.181030 
	C239.834183,369.786133 237.640884,372.727478 235.119797,375.812012 
	C224.116898,366.928864 222.886902,345.774017 232.143921,334.159393 
	C243.008835,320.527374 261.417633,318.706848 274.930328,327.488220 
	C276.019165,328.195801 276.832520,329.327362 277.907928,330.574463 
z"/>
<path fill="#FBB81C" opacity="1.000000" stroke="none" 
	d="
M387.145142,353.451355 
	C388.047821,351.503937 388.912659,349.666290 390.260590,348.308014 
	C404.651764,333.806366 419.108521,319.369659 433.578461,304.946442 
	C435.680450,302.851196 437.946442,300.920471 440.378418,298.587494 
	C447.547516,313.530701 443.903595,331.861694 432.846283,343.498108 
	C420.402191,356.593872 402.919434,359.136108 387.145142,353.451355 
z"/>
<path fill="#F46D20" opacity="1.000000" stroke="none" 
	d="
M246.116409,149.959320 
	C233.842468,162.142395 221.568527,174.325470 209.124405,186.801697 
	C203.302948,177.985840 197.651672,168.876816 191.942657,159.404419 
	C193.625259,158.151077 195.722260,157.622421 197.048706,156.313126 
	C206.357269,147.124878 215.506897,137.775620 225.181580,128.323120 
	C232.476013,135.432037 239.296219,142.695679 246.116409,149.959320 
z"/>
<path fill="#F57520" opacity="1.000000" stroke="none" 
	d="
M124.164291,275.165955 
	C129.233307,278.063873 134.302322,280.961761 139.609192,284.337677 
	C137.965683,287.309479 136.336868,290.052582 134.161469,292.256073 
	C121.232529,305.351898 108.199806,318.345734 95.151375,331.322937 
	C90.810669,335.639984 86.320663,339.806885 81.898911,344.042419 
	C78.613968,338.612610 75.329018,333.182800 72.429626,327.301788 
	C73.751648,326.190491 74.807228,325.649872 75.606941,324.852600 
	C90.980721,309.526123 106.335648,294.180695 121.649437,278.794312 
	C122.671310,277.767578 123.334351,276.383698 124.164291,275.165955 
z"/>
<path fill="#F57A1F" opacity="1.000000" stroke="none" 
	d="
M82.040092,344.358276 
	C86.320663,339.806885 90.810669,335.639984 95.151375,331.322937 
	C108.199806,318.345734 121.232529,305.351898 134.161469,292.256073 
	C136.336868,290.052582 137.965683,287.309479 139.921921,284.486023 
	C145.216736,289.220703 149.596939,294.798431 150.700684,302.597595 
	C148.731598,304.030548 146.813644,304.781586 145.470093,306.112518 
	C131.265167,320.184204 117.126503,334.323242 103.047752,348.521271 
	C101.439522,350.143127 100.308159,352.237823 98.955688,354.113281 
	C93.364212,350.966919 87.772743,347.820526 82.040092,344.358276 
z"/>
<path fill="#FAAE1C" opacity="1.000000" stroke="none" 
	d="
M426.879028,280.617676 
	C426.021820,282.793457 425.356842,285.012665 423.918091,286.465637 
	C407.044861,303.505493 390.058929,320.433807 373.086456,337.375244 
	C372.266388,338.193787 371.295563,338.861359 370.172363,339.851868 
	C365.159821,335.368408 362.567566,329.614685 362.195007,322.262817 
	C377.368195,306.787506 392.363190,291.996338 407.265411,277.112244 
	C408.212524,276.166290 408.438812,274.498566 409.000427,273.166626 
	C414.904205,275.546143 420.807983,277.925629 426.879028,280.617676 
z"/>
<path fill="#F57D1F" opacity="1.000000" stroke="none" 
	d="
M99.165611,354.448639 
	C100.308159,352.237823 101.439522,350.143127 103.047752,348.521271 
	C117.126503,334.323242 131.265167,320.184204 145.470093,306.112518 
	C146.813644,304.781586 148.731598,304.030548 150.751556,302.985443 
	C158.101242,322.881989 146.416504,345.989868 127.867180,353.194153 
	C118.344894,356.892426 109.013641,356.817078 99.165611,354.448639 
z"/>
<path fill="#F9A31D" opacity="1.000000" stroke="none" 
	d="
M135.466370,496.904449 
	C135.672699,495.720276 136.151505,494.416382 137.041565,493.521454 
	C151.189590,479.295349 165.387512,465.118805 179.589310,450.946289 
	C180.156387,450.380341 180.874542,449.965759 182.117203,449.035126 
	C182.643433,451.116150 183.055542,452.745880 183.657135,454.675476 
	C183.846588,468.727081 183.846588,482.478882 183.846588,496.975006 
	C167.910126,496.975006 151.920151,496.975006 135.466370,496.904449 
z"/>
<path fill="#F46D20" opacity="1.000000" stroke="none" 
	d="
M123.826317,275.046906 
	C123.334351,276.383698 122.671310,277.767578 121.649437,278.794312 
	C106.335648,294.180695 90.980721,309.526123 75.606941,324.852600 
	C74.807228,325.649872 73.751648,326.190491 72.490532,326.925415 
	C67.167206,315.613220 71.196945,297.106384 80.099258,287.276428 
	C89.860519,276.498016 101.818855,271.978210 116.065758,273.062378 
	C118.572754,273.253143 121.015778,274.284607 123.826317,275.046906 
z"/>
<path fill="#F9A31D" opacity="1.000000" stroke="none" 
	d="
M259.554138,403.092957 
	C258.823334,405.120941 257.976349,407.403534 256.415955,408.980072 
	C240.408554,425.153534 224.323975,441.251526 208.136765,457.244873 
	C206.462479,458.899170 203.985031,459.740570 201.522888,460.980896 
	C201.117783,455.310883 201.070023,449.619110 201.398743,443.349121 
	C204.386200,439.811096 206.879074,436.736359 209.628983,433.911865 
	C220.389633,422.859436 231.231506,411.886108 242.043198,400.883362 
	C247.731064,401.595520 253.418915,402.307678 259.554138,403.092957 
z"/>
<path fill="#FCC01B" opacity="1.000000" stroke="none" 
	d="
M271.466614,496.903503 
	C272.031403,495.025635 272.734924,492.901184 274.140930,491.464111 
	C283.316254,482.085846 292.692902,472.904907 301.896881,463.554260 
	C305.479156,459.914886 308.784332,456.002777 312.526794,452.109680 
	C312.837891,466.805878 312.837891,481.607300 312.837891,496.974823 
	C299.127014,496.974823 285.528656,496.974823 271.466614,496.903503 
z"/>
<path fill="#FEDF19" opacity="1.000000" stroke="none" 
	d="
M433.465973,496.905823 
	C433.799988,495.258179 434.266571,493.357147 435.446655,492.158691 
	C446.549683,480.883270 457.751160,469.704254 469.000549,458.574554 
	C470.118439,457.468567 471.742981,456.874725 473.482849,456.022827 
	C473.833282,469.415833 473.833282,482.829193 473.833282,496.978394 
	C460.590057,496.978394 447.259796,496.978394 433.465973,496.905823 
z"/>
<path fill="#F9A91D" opacity="1.000000" stroke="none" 
	d="
M408.540131,273.093628 
	C408.438812,274.498566 408.212524,276.166290 407.265411,277.112244 
	C392.363190,291.996338 377.368195,306.787506 362.171875,321.852661 
	C359.141479,309.762085 362.039856,298.691101 369.699371,288.843384 
	C379.444885,276.313660 392.661591,271.929932 408.540131,273.093628 
z"/>
<path fill="#F15422" opacity="1.000000" stroke="none" 
	d="
M222.513046,33.976570 
	C222.670242,35.364258 223.003036,37.312023 222.193970,38.129051 
	C205.590744,54.895317 188.859222,71.534569 172.135666,88.181450 
	C171.802933,88.512665 171.260101,88.632805 170.490662,88.926453 
	C169.635620,79.961571 169.105209,70.921646 168.558243,61.599831 
	C184.265137,53.612663 199.612869,45.822781 214.942657,37.997795 
	C217.388611,36.749275 219.754181,35.343285 222.513046,33.976570 
z"/>
<path fill="#F9A01D" opacity="1.000000" stroke="none" 
	d="
M241.867233,400.561829 
	C231.231506,411.886108 220.389633,422.859436 209.628983,433.911865 
	C206.879074,436.736359 204.386200,439.811096 201.469849,442.886017 
	C201.482178,423.131836 209.177307,406.967865 225.504166,395.341644 
	C226.701828,394.488831 229.313690,394.995819 231.009781,395.598053 
	C234.659576,396.893921 238.140961,398.664185 241.867233,400.561829 
z"/>
<path fill="#000000" opacity="1.000000" stroke="none" 
	d="
M246.456879,150.123779 
	C239.296219,142.695679 232.476013,135.432037 225.349152,128.027771 
	C223.477097,125.876633 222.055710,123.730682 220.317688,121.882500 
	C216.105072,117.402870 215.906403,112.198418 219.993896,108.544586 
	C224.257599,104.733238 229.114624,105.501564 233.235992,110.611519 
	C233.852859,111.376350 234.579193,112.052902 235.568832,112.913940 
	C241.071487,118.603134 246.260208,124.148682 251.976654,130.258255 
	C253.722183,128.929123 255.775284,127.694649 257.426971,126.055649 
	C269.722809,113.854355 281.814972,101.445122 294.236755,89.374619 
	C299.792938,83.975594 302.241547,83.974335 307.613159,87.975990 
	C311.699921,93.114372 311.793823,96.690063 307.464844,100.977928 
	C290.932129,117.353653 274.261292,133.590042 257.623322,149.859329 
	C254.179871,153.226486 250.483795,152.088196 246.456879,150.123779 
z"/>
</svg>