<svg version="1.1" id="Layer_1" xmlns="http://www.w3.org/2000/svg" xmlns:xlink="http://www.w3.org/1999/xlink" x="0px" y="0px"
	 width="100%" viewBox="0 0 512 512" enable-background="new 0 0 512 512" xml:space="preserve">
<path fill="#020202" opacity="1.000000" stroke="none" 
	d="
M513.000000,463.000000 
	C513.000000,479.658112 513.000000,496.316193 513.000000,512.980713 
	C342.429626,512.987183 171.859238,512.987183 1.000000,512.987183 
	C1.000000,416.645966 1.000000,320.291626 1.245929,223.129517 
	C2.118460,222.851227 2.886662,223.279495 3.349066,223.926361 
	C6.766090,228.706482 11.343490,232.125244 17.213022,230.837082 
	C26.565342,228.784561 35.692810,225.707504 44.955185,223.476135 
	C48.158138,236.913376 51.244713,249.957397 54.509609,262.956665 
	C56.942348,272.642700 59.605797,282.270813 62.100479,292.382568 
	C62.363926,300.777069 62.662506,308.715118 63.032829,316.649841 
	C63.317963,322.759125 63.105610,328.966858 64.150215,334.949982 
	C66.360878,347.611725 64.489662,359.515411 60.337051,371.574554 
	C51.754578,396.497986 43.976521,421.697327 35.630871,446.704163 
	C33.586159,452.830994 33.280216,458.749176 36.233685,464.368805 
	C40.764729,472.990112 48.530819,476.132507 57.837574,474.887878 
	C66.242088,473.763885 71.426224,468.689575 74.065605,460.459686 
	C81.515160,437.231293 89.333420,414.121399 96.908752,390.932922 
	C100.059433,381.288483 104.490547,371.732056 105.584763,361.831146 
	C106.902367,349.909027 105.495499,337.652588 104.890480,325.559723 
	C104.165321,311.065674 103.041565,296.591522 102.482651,282.057983 
	C105.579895,281.365631 108.284912,280.724091 111.029556,280.468262 
	C113.549911,290.570801 115.729408,300.376740 118.570992,309.986908 
	C125.557487,333.615204 130.057022,357.521698 128.002747,382.304688 
	C127.730843,385.584839 127.115845,388.851227 127.051918,392.131622 
	C126.643913,413.069244 126.244698,434.008026 126.046928,454.948364 
	C125.915039,468.914764 138.853638,478.279510 152.300629,474.311523 
	C162.260849,471.372406 166.588699,464.060730 166.905914,452.310791 
	C167.520355,429.551910 167.625412,406.779510 168.024033,384.014160 
	C168.078629,380.895752 168.907562,377.781036 168.860245,374.672516 
	C168.683548,363.066589 169.569351,351.249695 167.669037,339.912140 
	C165.066254,324.383514 160.355545,309.201965 156.411301,293.907013 
	C154.340485,285.876923 151.977844,277.922089 149.804596,269.528320 
	C147.150284,258.538177 144.406693,247.960968 141.736969,237.365143 
	C139.771774,229.565552 137.903183,221.741608 136.260086,213.584595 
	C137.274002,213.591095 138.135635,213.802521 138.746780,214.313507 
	C144.793320,219.369171 151.696075,219.023758 157.688858,215.449829 
	C163.028366,212.265488 166.309601,206.908951 166.086441,199.849869 
	C165.751602,189.257690 166.025330,178.646271 166.417358,168.176956 
	C190.199631,170.889313 213.041275,178.562912 237.005890,176.490051 
	C236.995239,177.567947 237.120621,178.268600 236.955826,178.892654 
	C231.487732,199.601212 225.931244,220.286636 220.526321,241.011581 
	C217.929764,250.967865 215.611755,260.996765 213.103317,271.401917 
	C211.358978,278.622345 209.713013,285.442261 207.992783,292.243378 
	C201.588776,317.562531 194.640427,342.755676 191.119720,368.717377 
	C189.579590,380.074463 187.736542,391.390717 186.009537,402.722229 
	C184.161057,414.850586 182.076263,426.947815 180.505432,439.111694 
	C179.595718,446.156067 178.111526,453.561066 179.366791,460.344727 
	C181.099747,469.710175 188.567047,475.922699 201.192719,475.013580 
	C210.032150,474.377045 217.874039,466.542938 219.033997,457.424103 
	C220.542908,445.561890 222.300949,433.729309 224.102417,421.906921 
	C226.320480,407.350647 228.618774,392.805573 231.024002,378.279144 
	C232.892593,366.993774 234.623489,355.666718 237.065842,344.500458 
	C239.574707,333.030182 242.880966,321.734619 245.822769,310.358612 
	C248.266006,300.910492 250.686707,291.456543 253.516617,282.000671 
	C256.588501,282.688751 259.261139,283.381348 261.962158,284.518341 
	C261.324554,298.188812 260.688843,311.416504 259.979248,324.640289 
	C259.642487,330.915558 259.355591,337.203186 258.703827,343.449524 
	C257.825165,351.869904 257.191284,360.136993 259.946564,368.451965 
	C270.089355,399.061310 279.944824,429.765778 290.027771,460.395142 
	C294.003906,472.473633 305.112274,477.990448 316.706390,473.954926 
	C327.603027,470.162262 332.513153,459.048309 328.678802,447.340759 
	C320.383270,422.011688 312.459045,396.557220 303.836212,371.341003 
	C300.409485,361.319977 298.197510,351.408813 298.978485,340.791412 
	C300.142700,324.963867 300.999603,309.113770 302.323242,293.042664 
	C302.937317,291.551239 303.175446,290.280060 303.499298,289.031097 
	C308.666168,269.104248 313.771851,249.161087 319.046204,229.262665 
	C322.252350,217.166931 325.722717,205.141251 329.353912,193.101486 
	C330.082947,193.362015 330.532440,193.605164 331.376434,193.904175 
	C343.617249,197.349869 355.414764,200.924286 367.325104,204.072037 
	C377.139282,206.665848 387.087036,208.754150 396.987000,211.528915 
	C397.325134,217.431351 397.667419,222.870438 397.975769,228.311478 
	C398.994537,246.288956 400.095367,264.262512 400.976807,282.246796 
	C401.505493,293.033112 402.782135,293.829254 413.463959,292.823090 
	C427.589203,291.492615 441.789612,290.960541 455.907776,290.490631 
	C455.193329,297.477905 454.574402,304.064850 453.854919,310.640778 
	C452.271667,325.111542 450.551880,339.567993 449.077728,354.049622 
	C448.647949,358.271545 448.152374,362.692017 448.923767,366.788605 
	C450.578003,375.573730 452.977112,384.222595 455.180267,392.899567 
	C460.733673,414.771240 466.370331,436.621796 471.925995,458.492889 
	C474.190155,467.406372 479.563019,473.403137 488.712097,474.783051 
	C497.740448,476.144745 505.494263,473.450500 510.506317,465.089050 
	C511.033081,464.210205 512.154480,463.687744 513.000000,463.000000 
z"/>
<path fill="#000000" opacity="1.000000" stroke="none" 
	d="
M0.999999,204.000000 
	C1.000000,136.358566 1.000000,68.717148 1.000000,1.037860 
	C171.577759,1.037860 342.155518,1.037860 513.000000,1.037860 
	C513.000000,148.355865 513.000000,295.711914 512.635132,443.470703 
	C511.621216,442.416077 510.754089,441.015564 510.357025,439.492493 
	C506.596680,425.068787 502.432922,410.726685 499.343292,396.157928 
	C495.977234,380.285919 488.732758,365.070221 491.853943,348.002625 
	C493.898804,336.820892 494.638611,325.390259 495.738922,314.049347 
	C496.616333,305.006073 497.155273,295.929962 497.891907,286.415527 
	C497.295227,275.555206 496.681213,265.145782 495.999634,254.740799 
	C495.037048,240.046204 493.967773,225.358459 493.048187,210.661255 
	C491.973267,193.481934 490.806030,176.304413 490.066223,159.109421 
	C489.518494,146.380035 481.216156,135.873611 468.877289,134.077957 
	C464.076172,133.379242 459.073303,133.776169 454.182892,134.046356 
	C445.597992,134.520676 437.034729,135.385941 428.449799,135.859360 
	C425.880341,136.001053 422.780640,136.197357 420.756378,134.982040 
	C407.869110,127.244743 395.194214,119.151833 382.514984,111.073044 
	C381.222290,110.249359 379.963470,108.911171 379.381165,107.521660 
	C377.723083,103.565048 376.413300,99.461838 374.983582,95.410278 
	C370.698242,83.266586 366.421051,71.120010 362.078217,58.582787 
	C361.045502,55.447216 360.075287,52.703415 359.054474,49.598984 
	C355.029266,38.987385 341.737915,36.420513 333.990417,40.982834 
	C326.612549,45.327503 324.209351,51.673569 326.187073,62.366547 
	C327.453613,65.844948 328.689423,68.944214 329.958496,72.424301 
	C335.831085,89.844635 341.603058,106.907700 347.549774,123.909637 
	C349.396881,129.190659 351.401733,134.278763 356.857513,137.421997 
	C367.735565,143.689148 378.351868,150.414749 388.995483,157.080032 
	C390.546570,158.051392 392.510406,159.572723 392.799622,161.117355 
	C393.584381,165.308578 393.571838,169.649109 393.535583,173.977722 
	C386.888550,172.561951 380.532837,171.279282 374.284851,169.596558 
	C362.898254,166.529877 351.575623,163.225967 340.074921,159.714188 
	C339.284912,159.215469 338.646301,159.023621 338.004730,158.386536 
	C338.001434,156.779480 338.023499,155.617142 337.997223,154.455887 
	C337.753937,143.709000 333.882660,134.353867 324.272644,129.360504 
	C317.165497,125.667618 308.855621,124.289482 301.184204,121.569656 
	C311.836121,112.204765 315.245575,100.201637 312.485931,87.342056 
	C308.654114,69.486534 294.018951,59.044304 276.286407,60.035820 
	C259.195557,60.991451 245.204102,74.308685 243.921890,92.225525 
	C243.224350,101.972618 246.741302,110.113785 251.518326,117.944504 
	C248.169708,118.672630 245.225525,119.364243 242.268600,119.996223 
	C232.564636,122.070206 222.856064,124.122559 212.732452,126.116653 
	C201.476669,127.556808 191.001175,132.334488 179.630585,129.090240 
	C175.254044,127.841522 170.582123,127.628090 166.018127,126.478638 
	C165.994980,120.369850 166.119888,114.722229 165.974670,109.081573 
	C165.733063,99.697136 157.167191,91.295128 148.258347,92.101028 
	C138.553528,92.978951 130.898911,101.585793 131.917511,109.479416 
	C132.359161,112.901985 131.922363,116.437897 131.480865,119.948776 
	C123.366295,118.652550 115.655434,117.329887 107.974167,116.004852 
	C108.003746,116.002480 107.985535,116.058975 108.010651,115.800858 
	C107.983124,115.378052 107.930481,115.213364 107.996460,114.717194 
	C114.062454,108.633385 116.679474,101.164368 116.855133,93.342873 
	C117.383736,69.805222 97.233734,52.105736 73.123596,58.094612 
	C54.089870,62.822521 43.109150,82.880875 48.815655,101.802757 
	C51.219780,109.774467 56.880341,115.030884 61.500214,120.973816 
	C57.063442,122.052223 53.029308,123.109459 48.600739,124.102715 
	C43.386391,125.360123 38.631828,127.043816 33.732956,127.927376 
	C23.587715,129.757172 17.726723,135.482620 15.965460,145.636902 
	C15.275520,149.614639 14.123184,153.510803 13.225198,157.454086 
	C11.067044,166.931107 8.934772,176.414032 6.443641,186.099869 
	C4.972288,192.069717 3.868760,197.838333 2.659397,203.584686 
	C2.608038,203.828720 1.575468,203.866257 0.999999,204.000000 
M399.951935,64.576248 
	C394.948486,72.067917 393.615540,80.382393 393.939941,89.239685 
	C394.308868,99.312546 398.654022,107.717171 405.823547,114.002090 
	C415.044647,122.085381 426.064362,125.822289 438.723206,123.048622 
	C462.642181,117.807747 472.604523,98.307625 468.495575,77.397415 
	C465.215668,60.706154 453.344788,50.564796 436.635345,48.270065 
	C421.997192,46.259785 409.363220,51.536465 399.951935,64.576248 
z"/>
<path fill="#292C2D" opacity="1.000000" stroke="none" 
	d="
M497.844452,286.868408 
	C497.155273,295.929962 496.616333,305.006073 495.738922,314.049347 
	C494.638611,325.390259 493.898804,336.820892 491.853943,348.002625 
	C488.732758,365.070221 495.977234,380.285919 499.343292,396.157928 
	C502.432922,410.726685 506.596680,425.068787 510.357025,439.492493 
	C510.754089,441.015564 511.621216,442.416077 512.635132,443.936707 
	C513.000000,450.021149 513.000000,456.042297 513.000000,462.531708 
	C512.154480,463.687744 511.033081,464.210205 510.506317,465.089050 
	C505.494263,473.450500 497.740448,476.144745 488.712097,474.783051 
	C479.563019,473.403137 474.190155,467.406372 471.925995,458.492889 
	C466.370331,436.621796 460.733673,414.771240 455.180267,392.899567 
	C452.977112,384.222595 450.578003,375.573730 448.923767,366.788605 
	C448.152374,362.692017 448.647949,358.271545 449.077728,354.049622 
	C450.551880,339.567993 452.271667,325.111542 453.854919,310.640778 
	C454.574402,304.064850 455.193329,297.477905 456.287689,290.308899 
	C470.426514,288.770691 484.135498,287.819550 497.844452,286.868408 
z"/>
<path fill="#FEB69F" opacity="1.000000" stroke="none" 
	d="
M0.999999,204.468277 
	C1.575468,203.866257 2.608038,203.828720 2.659397,203.584686 
	C3.868760,197.838333 4.972288,192.069717 6.922487,186.157654 
	C17.227236,186.042938 26.704779,186.065811 36.182144,186.119995 
	C37.502365,186.127533 39.693340,185.849060 39.997704,186.451950 
	C41.759968,189.942642 43.959522,187.940521 46.039192,187.249466 
	C57.545189,183.426025 68.999092,179.440155 80.552849,175.767944 
	C89.479424,172.930740 98.104546,177.216904 101.226456,185.663361 
	C104.324486,194.045227 100.401733,202.955673 91.883308,206.647385 
	C89.603912,207.635208 87.182175,208.293228 84.830032,209.114792 
	C71.524429,213.762390 58.220116,218.413681 44.915367,223.063721 
	C35.692810,225.707504 26.565342,228.784561 17.213022,230.837082 
	C11.343490,232.125244 6.766090,228.706482 3.349066,223.926361 
	C2.886662,223.279495 2.118460,222.851227 1.245929,222.660858 
	C1.000000,216.978851 1.000000,210.957703 0.999999,204.468277 
z"/>
<path fill="#004470" opacity="1.000000" stroke="none" 
	d="
M497.891907,286.415527 
	C484.135498,287.819550 470.426514,288.770691 456.337646,289.903564 
	C441.789612,290.960541 427.589203,291.492615 413.463959,292.823090 
	C402.782135,293.829254 401.505493,293.033112 400.976807,282.246796 
	C400.095367,264.262512 398.994537,246.288956 397.975769,228.311478 
	C397.667419,222.870438 397.325134,217.431351 397.168884,211.224335 
	C410.741547,204.634583 424.145294,198.815582 437.545258,192.987854 
	C447.606750,188.612045 457.923187,184.725586 467.638428,179.681808 
	C475.170197,175.771622 477.387573,165.790924 473.624542,158.257095 
	C469.657562,150.314896 460.725342,146.658463 452.474518,149.835281 
	C446.264374,152.226379 440.183990,154.952713 434.026764,157.483368 
	C420.649445,162.981476 407.259949,168.449875 393.875427,173.930420 
	C393.571838,169.649109 393.584381,165.308578 392.799622,161.117355 
	C392.510406,159.572723 390.546570,158.051392 388.995483,157.080032 
	C378.351868,150.414749 367.735565,143.689148 356.857513,137.421997 
	C351.401733,134.278763 349.396881,129.190659 347.549774,123.909637 
	C341.603058,106.907700 335.831085,89.844635 330.174072,72.121262 
	C340.951172,67.283112 351.545959,63.128838 362.140717,58.974560 
	C366.421051,71.120010 370.698242,83.266586 374.983582,95.410278 
	C376.413300,99.461838 377.723083,103.565048 379.381165,107.521660 
	C379.963470,108.911171 381.222290,110.249359 382.514984,111.073044 
	C395.194214,119.151833 407.869110,127.244743 420.756378,134.982040 
	C422.780640,136.197357 425.880341,136.001053 428.449799,135.859360 
	C437.034729,135.385941 445.597992,134.520676 454.182892,134.046356 
	C459.073303,133.776169 464.076172,133.379242 468.877289,134.077957 
	C481.216156,135.873611 489.518494,146.380035 490.066223,159.109421 
	C490.806030,176.304413 491.973267,193.481934 493.048187,210.661255 
	C493.967773,225.358459 495.037048,240.046204 495.999634,254.740799 
	C496.681213,265.145782 497.295227,275.555206 497.891907,286.415527 
z"/>
<path fill="#64AFFF" opacity="1.000000" stroke="none" 
	d="
M44.955185,223.476135 
	C58.220116,218.413681 71.524429,213.762390 84.830032,209.114792 
	C87.182175,208.293228 89.603912,207.635208 91.883308,206.647385 
	C100.401733,202.955673 104.324486,194.045227 101.226456,185.663361 
	C98.104546,177.216904 89.479424,172.930740 80.552849,175.767944 
	C68.999092,179.440155 57.545189,183.426025 46.039192,187.249466 
	C43.959522,187.940521 41.759968,189.942642 39.997704,186.451950 
	C39.693340,185.849060 37.502365,186.127533 36.182144,186.119995 
	C26.704779,186.065811 17.227236,186.042938 7.270902,185.952332 
	C8.934772,176.414032 11.067044,166.931107 13.225198,157.454086 
	C14.123184,153.510803 15.275520,149.614639 15.965460,145.636902 
	C17.726723,135.482620 23.587715,129.757172 33.732956,127.927376 
	C38.631828,127.043816 43.386391,125.360123 48.647762,124.448624 
	C52.492428,133.307037 57.570484,137.315384 65.221428,137.228027 
	C73.005173,137.139160 78.343483,133.304718 81.667198,126.054741 
	C91.609451,125.944923 99.484367,121.762634 107.062683,116.187347 
	C107.576782,116.218857 107.781158,116.138916 107.985535,116.058975 
	C107.985535,116.058975 108.003746,116.002480 108.042969,116.345093 
	C111.207817,119.524269 114.767105,122.015381 117.362938,125.273994 
	C121.868607,130.930038 125.778458,137.060730 129.960144,143.444794 
	C130.981400,148.768204 131.980682,153.639206 132.892151,158.940750 
	C133.693390,164.371262 129.704758,166.618652 127.118828,169.736832 
	C125.865845,171.247711 124.106445,173.572830 124.493271,175.015213 
	C127.742836,187.131943 131.437119,199.129425 134.996521,211.513885 
	C135.362350,212.585220 135.729187,213.305450 136.046234,214.026840 
	C135.996445,214.027985 135.991547,213.928513 135.991547,213.928513 
	C137.903183,221.741608 139.771774,229.565552 141.736969,237.365143 
	C144.406693,247.960968 147.150284,258.538177 149.408173,269.451843 
	C147.026978,270.188232 145.071213,270.493439 143.177399,271.020996 
	C132.440048,274.012085 121.717506,277.056366 110.989937,280.082581 
	C108.284912,280.724091 105.579895,281.365631 102.087677,282.046814 
	C88.255814,285.365875 75.211151,288.645294 62.166496,291.924713 
	C59.605797,282.270813 56.942348,272.642700 54.509609,262.956665 
	C51.244713,249.957397 48.158138,236.913376 44.955185,223.476135 
z"/>
<path fill="#FFDA52" opacity="1.000000" stroke="none" 
	d="
M213.149261,126.183228 
	C222.856064,124.122559 232.564636,122.070206 242.268600,119.996223 
	C245.225525,119.364243 248.169708,118.672630 251.863770,118.021568 
	C253.929291,119.006653 255.267899,119.956154 256.569519,120.953888 
	C266.626709,128.663025 277.653107,131.236664 289.809387,126.913696 
	C293.674652,125.539139 297.330109,123.574654 301.081573,121.880112 
	C308.855621,124.289482 317.165497,125.667618 324.272644,129.360504 
	C333.882660,134.353867 337.753937,143.709000 337.997223,154.455887 
	C338.023499,155.617142 338.001434,156.779480 337.613373,158.441528 
	C335.142578,158.574448 333.060181,158.207138 330.646729,157.620087 
	C328.514008,157.262070 326.707092,156.957809 324.911530,157.014145 
	C316.985260,157.262726 309.987915,164.295105 309.124969,172.776306 
	C308.431671,179.590485 314.942535,189.823898 322.108246,190.242859 
	C324.623779,191.332397 326.849091,192.208252 329.074402,193.084091 
	C325.722717,205.141251 322.252350,217.166931 319.046204,229.262665 
	C313.771851,249.161087 308.666168,269.104248 303.499298,289.031097 
	C303.175446,290.280060 302.937317,291.551239 301.921051,292.996826 
	C294.965027,291.607971 288.770630,289.933258 282.523163,288.487915 
	C275.685577,286.906097 268.799011,285.536224 261.933777,284.073975 
	C259.261139,283.381348 256.588501,282.688751 253.326202,281.681030 
	C239.546906,277.908203 226.357239,274.450470 213.167572,270.992737 
	C215.611755,260.996765 217.929764,250.967865 220.526321,241.011581 
	C225.931244,220.286636 231.487732,199.601212 236.955826,178.892654 
	C237.120621,178.268600 236.995239,177.567947 237.349503,176.340271 
	C239.375290,175.162125 241.018890,174.397980 242.745132,173.958832 
	C248.165543,172.579941 253.617050,171.323334 259.466370,170.014252 
	C275.790161,166.637650 291.764008,163.520966 307.596283,159.801697 
	C317.539001,157.465973 322.342804,146.580414 318.174469,137.313553 
	C314.784576,129.777390 308.192169,126.328514 298.683105,128.195511 
	C283.372040,131.201660 268.168762,134.756805 252.522964,138.083282 
	C239.835098,140.000534 227.924515,145.537292 215.008209,141.559464 
	C214.354660,136.155365 213.751968,131.169296 213.149261,126.183228 
z"/>
<path fill="#414B82" opacity="1.000000" stroke="none" 
	d="
M111.029556,280.468262 
	C121.717506,277.056366 132.440048,274.012085 143.177399,271.020996 
	C145.071213,270.493439 147.026978,270.188232 149.350555,269.856812 
	C151.977844,277.922089 154.340485,285.876923 156.411301,293.907013 
	C160.355545,309.201965 165.066254,324.383514 167.669037,339.912140 
	C169.569351,351.249695 168.683548,363.066589 168.860245,374.672516 
	C168.907562,377.781036 168.078629,380.895752 168.024033,384.014160 
	C167.625412,406.779510 167.520355,429.551910 166.905914,452.310791 
	C166.588699,464.060730 162.260849,471.372406 152.300629,474.311523 
	C138.853638,478.279510 125.915039,468.914764 126.046928,454.948364 
	C126.244698,434.008026 126.643913,413.069244 127.051918,392.131622 
	C127.115845,388.851227 127.730843,385.584839 128.002747,382.304688 
	C130.057022,357.521698 125.557487,333.615204 118.570992,309.986908 
	C115.729408,300.376740 113.549911,290.570801 111.029556,280.468262 
z"/>
<path fill="#748488" opacity="1.000000" stroke="none" 
	d="
M213.103302,271.401917 
	C226.357239,274.450470 239.546906,277.908203 252.926971,281.685547 
	C250.686707,291.456543 248.266006,300.910492 245.822769,310.358612 
	C242.880966,321.734619 239.574707,333.030182 237.065842,344.500458 
	C234.623489,355.666718 232.892593,366.993774 231.024002,378.279144 
	C228.618774,392.805573 226.320480,407.350647 224.102417,421.906921 
	C222.300949,433.729309 220.542908,445.561890 219.033997,457.424103 
	C217.874039,466.542938 210.032150,474.377045 201.192719,475.013580 
	C188.567047,475.922699 181.099747,469.710175 179.366791,460.344727 
	C178.111526,453.561066 179.595718,446.156067 180.505432,439.111694 
	C182.076263,426.947815 184.161057,414.850586 186.009537,402.722229 
	C187.736542,391.390717 189.579590,380.074463 191.119720,368.717377 
	C194.640427,342.755676 201.588776,317.562531 207.992783,292.243378 
	C209.713013,285.442261 211.358978,278.622345 213.103302,271.401917 
z"/>
<path fill="#5F6E9B" opacity="1.000000" stroke="none" 
	d="
M62.100479,292.382568 
	C75.211151,288.645294 88.255814,285.365875 101.695450,282.097595 
	C103.041565,296.591522 104.165321,311.065674 104.890480,325.559723 
	C105.495499,337.652588 106.902367,349.909027 105.584763,361.831146 
	C104.490547,371.732056 100.059433,381.288483 96.908752,390.932922 
	C89.333420,414.121399 81.515160,437.231293 74.065605,460.459686 
	C71.426224,468.689575 66.242088,473.763885 57.837574,474.887878 
	C48.530819,476.132507 40.764729,472.990112 36.233685,464.368805 
	C33.280216,458.749176 33.586159,452.830994 35.630871,446.704163 
	C43.976521,421.697327 51.754578,396.497986 60.337051,371.574554 
	C64.489662,359.515411 66.360878,347.611725 64.150215,334.949982 
	C63.105610,328.966858 63.317963,322.759125 63.032829,316.649841 
	C62.662506,308.715118 62.363926,300.777069 62.100479,292.382568 
z"/>
<path fill="#55696E" opacity="1.000000" stroke="none" 
	d="
M261.962158,284.518341 
	C268.799011,285.536224 275.685577,286.906097 282.523163,288.487915 
	C288.770630,289.933258 294.965027,291.607971 301.585022,293.227417 
	C300.999603,309.113770 300.142700,324.963867 298.978485,340.791412 
	C298.197510,351.408813 300.409485,361.319977 303.836212,371.341003 
	C312.459045,396.557220 320.383270,422.011688 328.678802,447.340759 
	C332.513153,459.048309 327.603027,470.162262 316.706390,473.954926 
	C305.112274,477.990448 294.003906,472.473633 290.027771,460.395142 
	C279.944824,429.765778 270.089355,399.061310 259.946564,368.451965 
	C257.191284,360.136993 257.825165,351.869904 258.703827,343.449524 
	C259.355591,337.203186 259.642487,330.915558 259.979248,324.640289 
	C260.688843,311.416504 261.324554,298.188812 261.962158,284.518341 
z"/>
<path fill="#00558C" opacity="1.000000" stroke="none" 
	d="
M393.535583,173.977722 
	C407.259949,168.449875 420.649445,162.981476 434.026764,157.483368 
	C440.183990,154.952713 446.264374,152.226379 452.474518,149.835281 
	C460.725342,146.658463 469.657562,150.314896 473.624542,158.257095 
	C477.387573,165.790924 475.170197,175.771622 467.638428,179.681808 
	C457.923187,184.725586 447.606750,188.612045 437.545258,192.987854 
	C424.145294,198.815582 410.741547,204.634583 397.157532,210.761902 
	C387.087036,208.754150 377.139282,206.665848 367.325104,204.072037 
	C355.414764,200.924286 343.617249,197.349869 331.419708,193.531769 
	C334.121094,182.076004 337.173676,171.048523 340.226257,160.021042 
	C351.575623,163.225967 362.898254,166.529877 374.284851,169.596558 
	C380.532837,171.279282 386.888550,172.561951 393.535583,173.977722 
z"/>
<path fill="#BA6846" opacity="1.000000" stroke="none" 
	d="
M259.056519,170.019348 
	C253.617050,171.323334 248.165543,172.579941 242.745132,173.958832 
	C241.018890,174.397980 239.375290,175.162125 237.350266,175.927307 
	C213.041275,178.562912 190.199631,170.889313 166.019409,168.088486 
	C161.328003,167.226288 157.410995,166.590057 153.495285,165.945938 
	C146.194229,164.744904 138.470612,164.707108 132.979965,158.510193 
	C131.980682,153.639206 130.981400,148.768204 130.231293,143.223755 
	C131.065399,141.255066 131.650330,139.959869 132.483124,138.483734 
	C138.362503,131.783508 145.474380,130.825760 153.463760,132.511459 
	C157.320190,133.325165 161.294983,133.577957 165.568665,134.234161 
	C182.300461,136.914902 198.679764,139.446198 215.059067,141.977493 
	C227.924515,145.537292 239.835098,140.000534 252.575241,138.477661 
	C255.035187,149.252319 257.045868,159.635834 259.056519,170.019348 
z"/>
<path fill="#FEB69E" opacity="1.000000" stroke="none" 
	d="
M132.892151,158.940750 
	C138.470612,164.707108 146.194229,164.744904 153.495285,165.945938 
	C157.410995,166.590057 161.328003,167.226288 165.642349,167.954559 
	C166.025330,178.646271 165.751602,189.257690 166.086441,199.849869 
	C166.309601,206.908951 163.028366,212.265488 157.688858,215.449829 
	C151.696075,219.023758 144.793320,219.369171 138.746780,214.313507 
	C138.135635,213.802521 137.274002,213.591095 136.260086,213.584595 
	C135.991547,213.928513 135.996445,214.027985 136.362976,213.771362 
	C136.152176,212.730774 135.574844,211.946777 134.997528,211.162796 
	C131.437119,199.129425 127.742836,187.131943 124.493271,175.015213 
	C124.106445,173.572830 125.865845,171.247711 127.118828,169.736832 
	C129.704758,166.618652 133.693390,164.371262 132.892151,158.940750 
z"/>
<path fill="#FCFCFB" opacity="1.000000" stroke="none" 
	d="
M340.074890,159.714188 
	C337.173676,171.048523 334.121094,182.076004 331.025238,193.475891 
	C330.532440,193.605164 330.082947,193.362015 329.353912,193.101486 
	C326.849091,192.208252 324.623779,191.332397 322.168152,189.848083 
	C324.951141,178.773010 327.964478,168.306427 330.977814,157.839844 
	C333.060181,158.207138 335.142578,158.574448 337.616302,158.886749 
	C338.646301,159.023621 339.284912,159.215469 340.074890,159.714188 
z"/>
<path fill="#FFB69E" opacity="1.000000" stroke="none" 
	d="
M400.203979,64.303055 
	C409.363220,51.536465 421.997192,46.259785 436.635345,48.270065 
	C453.344788,50.564796 465.215668,60.706154 468.495575,77.397415 
	C472.604523,98.307625 462.642181,117.807747 438.723206,123.048622 
	C426.064362,125.822289 415.044647,122.085381 405.823547,114.002090 
	C398.654022,107.717171 394.308868,99.312546 393.939941,89.239685 
	C393.615540,80.382393 394.948486,72.067917 400.203979,64.303055 
z"/>
<path fill="#FFB69E" opacity="1.000000" stroke="none" 
	d="
M106.752945,116.075897 
	C99.484367,121.762634 91.609451,125.944923 81.241837,126.027733 
	C74.237236,124.341125 68.070038,122.646889 61.902847,120.952652 
	C56.880341,115.030884 51.219780,109.774467 48.815655,101.802757 
	C43.109150,82.880875 54.089870,62.822521 73.123596,58.094612 
	C97.233734,52.105736 117.383736,69.805222 116.855133,93.342873 
	C116.679474,101.164368 114.062454,108.633385 107.788208,114.862289 
	C107.225204,115.584534 106.989075,115.830215 106.752945,116.075897 
z"/>
<path fill="#BA6746" opacity="1.000000" stroke="none" 
	d="
M301.184204,121.569656 
	C297.330109,123.574654 293.674652,125.539139 289.809387,126.913696 
	C277.653107,131.236664 266.626709,128.663025 256.569519,120.953888 
	C255.267899,119.956154 253.929291,119.006653 252.262360,117.957748 
	C246.741302,110.113785 243.224350,101.972618 243.921890,92.225525 
	C245.204102,74.308685 259.195557,60.991451 276.286407,60.035820 
	C294.018951,59.044304 308.654114,69.486534 312.485931,87.342056 
	C315.245575,100.201637 311.836121,112.204765 301.184204,121.569656 
z"/>
<path fill="#FEB59D" opacity="1.000000" stroke="none" 
	d="
M165.216171,134.084732 
	C161.294983,133.577957 157.320190,133.325165 153.463760,132.511459 
	C145.474380,130.825760 138.362503,131.783508 132.480896,138.043365 
	C132.115402,131.830063 131.999969,125.876198 131.884552,119.922333 
	C131.922363,116.437897 132.359161,112.901985 131.917511,109.479416 
	C130.898911,101.585793 138.553528,92.978951 148.258347,92.101028 
	C157.167191,91.295128 165.733063,99.697136 165.974670,109.081573 
	C166.119888,114.722229 165.994980,120.369850 165.774170,126.788849 
	C165.443314,129.737152 165.329742,131.910950 165.216171,134.084732 
z"/>
<path fill="#FFB69F" opacity="1.000000" stroke="none" 
	d="
M326.156311,61.987411 
	C324.209351,51.673569 326.612549,45.327503 333.990417,40.982834 
	C341.737915,36.420513 355.029266,38.987385 358.820709,49.877197 
	C347.810455,54.339828 336.983368,58.163620 326.156311,61.987411 
z"/>
<path fill="#B05834" opacity="1.000000" stroke="none" 
	d="
M165.568665,134.234161 
	C165.329742,131.910950 165.443314,129.737152 165.800827,127.253159 
	C170.582123,127.628090 175.254044,127.841522 179.630585,129.090240 
	C191.001175,132.334488 201.476669,127.556808 212.732452,126.116653 
	C213.751968,131.169296 214.354660,136.155365 215.008209,141.559464 
	C198.679764,139.446198 182.300461,136.914902 165.568665,134.234161 
z"/>
<path fill="#FCFCFC" opacity="1.000000" stroke="none" 
	d="
M326.187073,62.366547 
	C336.983368,58.163620 347.810455,54.339828 358.871277,50.237823 
	C360.075287,52.703415 361.045502,55.447216 362.078217,58.582787 
	C351.545959,63.128838 340.951172,67.283112 330.140839,71.740433 
	C328.689423,68.944214 327.453613,65.844948 326.187073,62.366547 
z"/>
<path fill="#FDA386" opacity="1.000000" stroke="none" 
	d="
M61.500214,120.973816 
	C68.070038,122.646889 74.237236,124.341125 80.829788,126.062370 
	C78.343483,133.304718 73.005173,137.139160 65.221428,137.228027 
	C57.570484,137.315384 52.492428,133.307037 49.042198,124.512604 
	C53.029308,123.109459 57.063442,122.052223 61.500214,120.973816 
z"/>
<path fill="#AF5836" opacity="1.000000" stroke="none" 
	d="
M131.480850,119.948776 
	C131.999969,125.876198 132.115402,131.830063 132.233047,138.224289 
	C131.650330,139.959869 131.065399,141.255066 130.209320,142.771332 
	C125.778458,137.060730 121.868607,130.930038 117.362938,125.273994 
	C114.767105,122.015381 111.207817,119.524269 108.013382,116.347458 
	C115.655434,117.329887 123.366295,118.652550 131.480850,119.948776 
z"/>
<path fill="#AF5836" opacity="1.000000" stroke="none" 
	d="
M107.062675,116.187347 
	C106.989075,115.830215 107.225204,115.584534 107.669586,115.193771 
	C107.930481,115.213364 107.983124,115.378052 108.010651,115.800858 
	C107.781158,116.138916 107.576782,116.218857 107.062675,116.187347 
z"/>
<path fill="#020202" opacity="1.000000" stroke="none" 
	d="
M134.996521,211.513885 
	C135.574844,211.946777 136.152176,212.730774 136.412750,213.770233 
	C135.729187,213.305450 135.362350,212.585220 134.996521,211.513885 
z"/>
<path fill="#F2C41B" opacity="1.000000" stroke="none" 
	d="
M259.466370,170.014252 
	C257.045868,159.635834 255.035187,149.252319 252.972244,138.474426 
	C268.168762,134.756805 283.372040,131.201660 298.683105,128.195511 
	C308.192169,126.328514 314.784576,129.777390 318.174469,137.313553 
	C322.342804,146.580414 317.539001,157.465973 307.596283,159.801697 
	C291.764008,163.520966 275.790161,166.637650 259.466370,170.014252 
z"/>
<path fill="#FFB79E" opacity="1.000000" stroke="none" 
	d="
M330.646729,157.620102 
	C327.964478,168.306427 324.951141,178.773010 321.877930,189.634384 
	C314.942535,189.823898 308.431671,179.590485 309.124969,172.776306 
	C309.987915,164.295105 316.985260,157.262726 324.911530,157.014145 
	C326.707092,156.957809 328.514008,157.262070 330.646729,157.620102 
z"/>
</svg>