<?xml version="1.0" encoding="UTF-8"?>
<svg id="Layer_1" data-name="Layer 1" xmlns="http://www.w3.org/2000/svg" viewBox="0 0 1081.45 262.1">
  <defs>
    <style>
      .cls-1 {
        fill: #424142;
        font-family: HarabaraMaisBold-HarabaraMaisBold, 'Harabara Mais Demo';
        font-size: 186.35px;
        font-weight: 700;
      }

      .cls-2 {
        letter-spacing: .05em;
      }

      .cls-3 {
        fill: #f9a341;
      }

      .cls-4 {
        fill: #231f20;
        stroke: #414042;
        stroke-width: 9px;
      }

      .cls-4, .cls-5, .cls-6 {
        stroke-miterlimit: 10;
      }

      .cls-7 {
        fill: #292929;
      }

      .cls-5 {
        fill: none;
        stroke-width: 15px;
      }

      .cls-5, .cls-6 {
        stroke: #f9a341;
        stroke-linecap: round;
      }

      .cls-8 {
        letter-spacing: .05em;
      }

      .cls-9 {
        letter-spacing: .07em;
      }

      .cls-6 {
        fill: #414042;
        stroke-width: 6px;
      }
    </style>
  </defs>
  <path class="cls-4" d="M137.17,4.5C85.57,4.5,31.56,59.99,4.55,59.99c.39,36.39,9.21,82.7,33.78,128.51l2.02-10.79C17.73,132.01,12.41,89.92,11.39,67.05l-.05-1.17,1.14-.28c11.61-2.82,25.52-11.27,41.63-21.06,25.79-15.66,54.99-33.4,83.07-33.4s57.29,17.75,83.06,33.4c16.12,9.79,30.04,18.25,41.64,21.06l1.14,.28-.05,1.17c-1.03,22.9-6.36,65.08-29.05,110.86l2.74,9.43c24.09-45.44,32.78-91.26,33.16-127.35-27.01,0-81.03-55.49-132.63-55.49Z"/>
  <path class="cls-3" d="M170.66,79.13c0,19.45-15.77,35.23-35.23,35.23s-35.23-15.78-35.23-35.23,15.77-35.23,35.23-35.23,35.23,15.77,35.23,35.23Z"/>
  <path class="cls-3" d="M167.92,125.92h-61.5c-26.68,0-48.31,21.63-48.31,48.31v34.37l35.54,25.01h-.02s.02,0,.02,0l38.9,27.37c3.24,1.31,6.59,1.78,9.76-.33,14.54-9.25,25.17-20.46,36.38-32.97l-.15,.12,.15-.12c.17-.19,.35-.39,.52-.58,.12-.12,.28-.17,.46-.19l36.56-28.54v-24.14c0-26.68-21.63-48.31-48.31-48.31Z"/>
  <path class="cls-7" d="M157.22,156.3c0,11.07-8.97,20.04-20.04,20.04s-20.04-8.98-20.04-20.04,8.97-20.05,20.04-20.05,20.04,8.97,20.04,20.05Z"/>
  <path class="cls-7" d="M178.8,188.45c0-2.22-1.8-4.03-4.03-4.03H99.37c-2.22,0-4.03,1.8-4.03,4.03v30.59l41.56,33.45,41.9-36.25v-27.8Z"/>
  <path class="cls-6" d="M214.33,199.93c-24.13,19.59-48.25,39.18-72.38,58.77"/>
  <path class="cls-5" d="M134.34,132.12s-9.62,13.79,3.79,18.88"/>
  <text class="cls-1" transform="translate(340.34 188.51)"><tspan class="cls-2" x="0" y="0">Zenf</tspan><tspan class="cls-9" x="397.3" y="0">i</tspan><tspan class="cls-8" x="449.1" y="0">lter</tspan></text>
</svg>